<svg class="marks" width="916.29" height="1046" viewBox="0 0 916.29 1046" version="1.1" xmlns="http://www.w3.org/2000/svg" xmlns:xlink="http://www.w3.org/1999/xlink"><g transform="translate(0,0)"><g class="mark-group role-frame root"><g transform="translate(0,0)"><path class="background" d="M0,0h916.29v1046h-916.29Z" style="fill: none;"></path><g><g class="mark-path role-mark" style="pointer-events: none;"><path transform="translate(0,0)" d="M493.26556083392165,594.0012858575162C493.26556083392165,558.0072289290097 414.2965066970142,558.0072289290097 414.2965066970142,522.0131720005031" style="fill: none; stroke: #ccc; stroke-width: 0.5;"></path><path transform="translate(0,0)" d="M488.2675171099664,809.9923224246634C488.2675171099664,773.9948071169572 491.27646419898804,773.9948071169572 491.27646419898804,737.9972918092511" style="fill: none; stroke: #ccc; stroke-width: 0.5;"></path><path transform="translate(0,0)" d="M488.2732381528057,953.9930559693415C488.2732381528057,917.9965258692806 488.29000004607553,917.9965258692806 488.29000004607553,881.9999957692197" style="fill: none; stroke: #ccc; stroke-width: 0.5;"></path><path transform="translate(0,0)" d="M488.29000004607553,881.9999957692197C488.29000004607553,845.9961590969415 488.2675171099664,845.9961590969415 488.2675171099664,809.9923224246634" style="fill: none; stroke: #ccc; stroke-width: 0.5;"></path><path transform="translate(0,0)" d="M414.2965066970142,522.0131720005031C414.2965066970142,486.017163482527 414.2900035559972,486.017163482527 414.2900035559972,450.0211549645509" style="fill: none; stroke: #ccc; stroke-width: 0.5;"></path><path transform="translate(0,0)" d="M406.2943288803711,665.9846158050673C406.2943288803711,629.9929508312918 493.26556083392165,629.9929508312918 493.26556083392165,594.0012858575162" style="fill: none; stroke: #ccc; stroke-width: 0.5;"></path><path transform="translate(0,0)" d="M491.27646419898804,737.9972918092511C491.27646419898804,701.9909538071593 406.2943288803711,701.9909538071593 406.2943288803711,665.9846158050673" style="fill: none; stroke: #ccc; stroke-width: 0.5;"></path><path transform="translate(0,0)" d="M414.2965066970142,522.0131720005031C414.2965066970142,593.9988939027852 406.2943288803711,593.9988939027852 406.2943288803711,665.9846158050673" style="fill: none; stroke: #ccc; stroke-width: 0.5;"></path><path transform="translate(0,0)" d="M275.28021148692636,809.9735498753826C275.28021148692636,773.9967632839983 275.3240769515937,773.9967632839983 275.3240769515937,738.0199766926141" style="fill: none; stroke: #ccc; stroke-width: 0.5;"></path><path transform="translate(0,0)" d="M488.2675171099664,809.9923224246634C488.2675171099664,774.0061495586388 275.3240769515937,774.0061495586388 275.3240769515937,738.0199766926141" style="fill: none; stroke: #ccc; stroke-width: 0.5;"></path><path transform="translate(0,0)" d="M272.2899999999569,233.99765235C272.2899999999569,198.008226175 272.2900000000863,198.008226175 272.2900000000863,162.0188" style="fill: none; stroke: #ccc; stroke-width: 0.5;"></path><path transform="translate(0,0)" d="M104.28715375291883,233.98566838190538C104.28715375291883,162.00735778490713 66.30363863341766,162.00735778490713 66.30363863341766,90.02904718790884" style="fill: none; stroke: #ccc; stroke-width: 0.5;"></path><path transform="translate(0,0)" d="M104.28605259542101,162.00097966035912C104.28605259542101,126.01501342413398 66.30363863341766,126.01501342413398 66.30363863341766,90.02904718790884" style="fill: none; stroke: #ccc; stroke-width: 0.5;"></path><path transform="translate(0,0)" d="M104.28715375291883,233.98566838190538C104.28715375291883,197.99332402113225 104.28605259542101,197.99332402113225 104.28605259542101,162.00097966035912" style="fill: none; stroke: #ccc; stroke-width: 0.5;"></path><path transform="translate(0,0)" d="M616.2899980941158,521.9964479328902C616.2899980941158,449.99801548025454 616.2811298090116,449.99801548025454 616.2811298090116,377.9995830276189" style="fill: none; stroke: #ccc; stroke-width: 0.5;"></path><path transform="translate(0,0)" d="M469.289999999969,234.00000313333334C469.289999999969,198.00940156666667 469.29000000006215,198.00940156666667 469.29000000006215,162.0188" style="fill: none; stroke: #ccc; stroke-width: 0.5;"></path><path transform="translate(0,0)" d="M469.29992570441317,305.9999655525296C469.29992570441317,269.9999843429315 469.289999999969,269.9999843429315 469.289999999969,234.00000313333334" style="fill: none; stroke: #ccc; stroke-width: 0.5;"></path><path transform="translate(0,0)" d="M616.2811298090116,377.9995830276189C616.2811298090116,341.99977429007424 469.29992570441317,341.99977429007424 469.29992570441317,305.9999655525296" style="fill: none; stroke: #ccc; stroke-width: 0.5;"></path><path transform="translate(0,0)" d="M272.2956176604558,378.0118917975685C272.2956176604558,342.00592867504906 469.29992570441317,342.00592867504906 469.29992570441317,305.9999655525296" style="fill: none; stroke: #ccc; stroke-width: 0.5;"></path><path transform="translate(0,0)" d="M616.2811298090116,377.9995830276189C616.2811298090116,342.01137450610395 666.2739075987392,342.01137450610395 666.2739075987392,306.02316598458896" style="fill: none; stroke: #ccc; stroke-width: 0.5;"></path><path transform="translate(0,0)" d="M272.29000283210144,306.002348415559C272.29000283210144,270.0000003827795 272.2899999999569,270.0000003827795 272.2899999999569,233.99765235" style="fill: none; stroke: #ccc; stroke-width: 0.5;"></path><path transform="translate(0,0)" d="M138.29107837050245,378.00153339060864C138.29107837050245,342.00010882554557 116.29078232227462,342.00010882554557 116.29078232227462,305.9986842604825" style="fill: none; stroke: #ccc; stroke-width: 0.5;"></path><path transform="translate(0,0)" d="M550.290999519529,1025.9401500226759C550.290999519529,845.9862967825977 616.2807781354456,845.9862967825977 616.2807781354456,666.0324435425197" style="fill: none; stroke: #ccc; stroke-width: 0.5;"></path><path transform="translate(0,0)" d="M550.290999519529,1025.9401500226759C550.290999519529,989.9666029960088 488.2732381528057,989.9666029960088 488.2732381528057,953.9930559693415" style="fill: none; stroke: #ccc; stroke-width: 0.5;"></path><path transform="translate(0,0)" d="M635.2746465065405,161.99014529758466C635.2746465065405,126.00844813650704 511.33607112435067,126.00844813650704 511.33607112435067,90.02675097542941" style="fill: none; stroke: #ccc; stroke-width: 0.5;"></path><path transform="translate(0,0)" d="M272.2956176604558,378.0118917975685C272.2956176604558,342.0071201065638 272.29000283210144,342.0071201065638 272.29000283210144,306.002348415559" style="fill: none; stroke: #ccc; stroke-width: 0.5;"></path><path transform="translate(0,0)" d="M165.29767345072113,449.99224078609114C165.29767345072113,414.0020662918298 272.2956176604558,414.0020662918298 272.2956176604558,378.0118917975685" style="fill: none; stroke: #ccc; stroke-width: 0.5;"></path><path transform="translate(0,0)" d="M272.294179207331,593.9792528126058C272.294179207331,485.99557230508714 272.2956176604558,485.99557230508714 272.2956176604558,378.0118917975685" style="fill: none; stroke: #ccc; stroke-width: 0.5;"></path><path transform="translate(0,0)" d="M635.2888236813973,233.9950568315655C635.2888236813973,197.99829342712576 784.2688150177697,197.99829342712576 784.2688150177697,162.001530022686" style="fill: none; stroke: #ccc; stroke-width: 0.5;"></path><path transform="translate(0,0)" d="M784.2688150177697,162.001530022686C784.2688150177697,126.01023709708201 796.2868334601458,126.01023709708201 796.2868334601458,90.01894417147803" style="fill: none; stroke: #ccc; stroke-width: 0.5;"></path><path transform="translate(0,0)" d="M469.29992570441317,305.9999655525296C469.29992570441317,269.99751119204757 635.2888236813973,269.99751119204757 635.2888236813973,233.9950568315655" style="fill: none; stroke: #ccc; stroke-width: 0.5;"></path><path transform="translate(0,0)" d="M275.28021148692636,809.9735498753826C275.28021148692636,666.0005516164049 165.30873031194994,666.0005516164049 165.30873031194994,522.0275533574272" style="fill: none; stroke: #ccc; stroke-width: 0.5;"></path><path transform="translate(0,0)" d="M272.294179207331,593.9792528126058C272.294179207331,558.0034030850165 165.30873031194994,558.0034030850165 165.30873031194994,522.0275533574272" style="fill: none; stroke: #ccc; stroke-width: 0.5;"></path><path transform="translate(0,0)" d="M488.2732381528057,953.9930559693415C488.2732381528057,917.9980351355711 279.3228878463111,917.9980351355711 279.3228878463111,882.0030143018006" style="fill: none; stroke: #ccc; stroke-width: 0.5;"></path><path transform="translate(0,0)" d="M279.3228878463111,882.0030143018006C279.3228878463111,845.9882820885916 275.28021148692636,845.9882820885916 275.28021148692636,809.9735498753826" style="fill: none; stroke: #ccc; stroke-width: 0.5;"></path><path transform="translate(0,0)" d="M406.2943288803711,665.9846158050673C406.2943288803711,629.9819343088366 272.294179207331,629.9819343088366 272.294179207331,593.9792528126058" style="fill: none; stroke: #ccc; stroke-width: 0.5;"></path><path transform="translate(0,0)" d="M165.29767345072113,449.99224078609114C165.29767345072113,413.9968870883499 138.29107837050245,413.9968870883499 138.29107837050245,378.00153339060864" style="fill: none; stroke: #ccc; stroke-width: 0.5;"></path><path transform="translate(0,0)" d="M165.30873031194994,522.0275533574272C165.30873031194994,486.00989707175916 165.29767345072113,486.00989707175916 165.29767345072113,449.99224078609114" style="fill: none; stroke: #ccc; stroke-width: 0.5;"></path><path transform="translate(0,0)" d="M116.29078232227462,305.9986842604825C116.29078232227462,269.99217632119394 104.28715375291883,269.99217632119394 104.28715375291883,233.98566838190538" style="fill: none; stroke: #ccc; stroke-width: 0.5;"></path><path transform="translate(0,0)" d="M616.2807781354456,666.0324435425197C616.2807781354456,594.0144457377049 616.2899980941158,594.0144457377049 616.2899980941158,521.9964479328902" style="fill: none; stroke: #ccc; stroke-width: 0.5;"></path><path transform="translate(0,0)" d="M635.2899969925141,89.99906014518679C635.2899969925141,54.008930072593394 635.2900000000944,54.008930072593394 635.2900000000944,18.0188" style="fill: none; stroke: #ccc; stroke-width: 0.5;"></path><path transform="translate(0,0)" d="M635.2746465065405,161.99014529758466C635.2746465065405,125.99460272138572 635.2899969925141,125.99460272138572 635.2899969925141,89.99906014518679" style="fill: none; stroke: #ccc; stroke-width: 0.5;"></path><path transform="translate(0,0)" d="M635.2888236813973,233.9950568315655C635.2888236813973,197.99260106457507 635.2746465065405,197.99260106457507 635.2746465065405,161.99014529758466" style="fill: none; stroke: #ccc; stroke-width: 0.5;"></path></g><g class="mark-symbol role-mark nodes"><path transform="translate(550.290999519529,1025.9401500226759)" d="M4,0A4,4,0,1,1,-4,0A4,4,0,1,1,4,0" style="fill: #3182bd;"></path><path transform="translate(414.2965066970142,522.0131720005031)" d="M4,0A4,4,0,1,1,-4,0A4,4,0,1,1,4,0" style="fill: #6baed6;"></path><path transform="translate(491.27646419898804,737.9972918092511)" d="M4,0A4,4,0,1,1,-4,0A4,4,0,1,1,4,0" style="fill: #9ecae1;"></path><path transform="translate(488.29000004607553,881.9999957692197)" d="M4,0A4,4,0,1,1,-4,0A4,4,0,1,1,4,0" style="fill: #c6dbef;"></path><path transform="translate(488.2675171099664,809.9923224246634)" d="M4,0A4,4,0,1,1,-4,0A4,4,0,1,1,4,0" style="fill: #e6550d;"></path><path transform="translate(414.2900035559972,450.0211549645509)" d="M4,0A4,4,0,1,1,-4,0A4,4,0,1,1,4,0" style="fill: #fd8d3c;"></path><path transform="translate(493.26556083392165,594.0012858575162)" d="M4,0A4,4,0,1,1,-4,0A4,4,0,1,1,4,0" style="fill: #fdae6b;"></path><path transform="translate(406.2943288803711,665.9846158050673)" d="M4,0A4,4,0,1,1,-4,0A4,4,0,1,1,4,0" style="fill: #fdd0a2;"></path><path transform="translate(275.3240769515937,738.0199766926141)" d="M4,0A4,4,0,1,1,-4,0A4,4,0,1,1,4,0" style="fill: #31a354;"></path><path transform="translate(272.2900000000863,162.0188)" d="M4,0A4,4,0,1,1,-4,0A4,4,0,1,1,4,0" style="fill: #74c476;"></path><path transform="translate(66.30363863341766,90.02904718790884)" d="M4,0A4,4,0,1,1,-4,0A4,4,0,1,1,4,0" style="fill: #a1d99b;"></path><path transform="translate(104.28605259542101,162.00097966035912)" d="M4,0A4,4,0,1,1,-4,0A4,4,0,1,1,4,0" style="fill: #c7e9c0;"></path><path transform="translate(616.2811298090116,377.9995830276189)" d="M4,0A4,4,0,1,1,-4,0A4,4,0,1,1,4,0" style="fill: #756bb1;"></path><path transform="translate(469.29000000006215,162.0188)" d="M4,0A4,4,0,1,1,-4,0A4,4,0,1,1,4,0" style="fill: #9e9ac8;"></path><path transform="translate(469.289999999969,234.00000313333334)" d="M4,0A4,4,0,1,1,-4,0A4,4,0,1,1,4,0" style="fill: #bcbddc;"></path><path transform="translate(469.29992570441317,305.9999655525296)" d="M4,0A4,4,0,1,1,-4,0A4,4,0,1,1,4,0" style="fill: #dadaeb;"></path><path transform="translate(666.2739075987392,306.02316598458896)" d="M4,0A4,4,0,1,1,-4,0A4,4,0,1,1,4,0" style="fill: #636363;"></path><path transform="translate(272.2899999999569,233.99765235)" d="M4,0A4,4,0,1,1,-4,0A4,4,0,1,1,4,0" style="fill: #969696;"></path><path transform="translate(116.29078232227462,305.9986842604825)" d="M4,0A4,4,0,1,1,-4,0A4,4,0,1,1,4,0" style="fill: #bdbdbd;"></path><path transform="translate(616.2807781354456,666.0324435425197)" d="M4,0A4,4,0,1,1,-4,0A4,4,0,1,1,4,0" style="fill: #d9d9d9;"></path><path transform="translate(488.2732381528057,953.9930559693415)" d="M4,0A4,4,0,1,1,-4,0A4,4,0,1,1,4,0" style="fill: #3182bd;"></path><path transform="translate(511.33607112435067,90.02675097542941)" d="M4,0A4,4,0,1,1,-4,0A4,4,0,1,1,4,0" style="fill: #6baed6;"></path><path transform="translate(272.29000283210144,306.002348415559)" d="M4,0A4,4,0,1,1,-4,0A4,4,0,1,1,4,0" style="fill: #9ecae1;"></path><path transform="translate(272.2956176604558,378.0118917975685)" d="M4,0A4,4,0,1,1,-4,0A4,4,0,1,1,4,0" style="fill: #c6dbef;"></path><path transform="translate(784.2688150177697,162.001530022686)" d="M4,0A4,4,0,1,1,-4,0A4,4,0,1,1,4,0" style="fill: #e6550d;"></path><path transform="translate(796.2868334601458,90.01894417147803)" d="M4,0A4,4,0,1,1,-4,0A4,4,0,1,1,4,0" style="fill: #fd8d3c;"></path><path transform="translate(635.2888236813973,233.9950568315655)" d="M4,0A4,4,0,1,1,-4,0A4,4,0,1,1,4,0" style="fill: #fdae6b;"></path><path transform="translate(165.30873031194994,522.0275533574272)" d="M4,0A4,4,0,1,1,-4,0A4,4,0,1,1,4,0" style="fill: #fdd0a2;"></path><path transform="translate(279.3228878463111,882.0030143018006)" d="M4,0A4,4,0,1,1,-4,0A4,4,0,1,1,4,0" style="fill: #31a354;"></path><path transform="translate(275.28021148692636,809.9735498753826)" d="M4,0A4,4,0,1,1,-4,0A4,4,0,1,1,4,0" style="fill: #74c476;"></path><path transform="translate(272.294179207331,593.9792528126058)" d="M4,0A4,4,0,1,1,-4,0A4,4,0,1,1,4,0" style="fill: #a1d99b;"></path><path transform="translate(138.29107837050245,378.00153339060864)" d="M4,0A4,4,0,1,1,-4,0A4,4,0,1,1,4,0" style="fill: #c7e9c0;"></path><path transform="translate(165.29767345072113,449.99224078609114)" d="M4,0A4,4,0,1,1,-4,0A4,4,0,1,1,4,0" style="fill: #756bb1;"></path><path transform="translate(104.28715375291883,233.98566838190538)" d="M4,0A4,4,0,1,1,-4,0A4,4,0,1,1,4,0" style="fill: #9e9ac8;"></path><path transform="translate(616.2899980941158,521.9964479328902)" d="M4,0A4,4,0,1,1,-4,0A4,4,0,1,1,4,0" style="fill: #bcbddc;"></path><path transform="translate(635.2900000000944,18.0188)" d="M4,0A4,4,0,1,1,-4,0A4,4,0,1,1,4,0" style="fill: #dadaeb;"></path><path transform="translate(635.2899969925141,89.99906014518679)" d="M4,0A4,4,0,1,1,-4,0A4,4,0,1,1,4,0" style="fill: #636363;"></path><path transform="translate(635.2746465065405,161.99014529758466)" d="M4,0A4,4,0,1,1,-4,0A4,4,0,1,1,4,0" style="fill: #969696;"></path></g><g class="mark-text role-mark labels"><text text-anchor="start" transform="translate(555.29,1021)" style="font-family: sans-serif; font-size: 11px; font-weight: normal; fill: black;">all</text><text text-anchor="start" transform="translate(419.29,517)" style="font-family: sans-serif; font-size: 11px; font-weight: normal; fill: black;">bacteria_combine_genome</text><text text-anchor="start" transform="translate(496.29,733)" style="font-family: sans-serif; font-size: 11px; font-weight: normal; fill: black;">bacteria_combine_result</text><text text-anchor="start" transform="translate(493.29,877)" style="font-family: sans-serif; font-size: 11px; font-weight: normal; fill: black;">bacteria_count_combine</text><text text-anchor="start" transform="translate(493.29,805)" style="font-family: sans-serif; font-size: 11px; font-weight: normal; fill: black;">bacteria_count_taxa</text><text text-anchor="start" transform="translate(419.29,445)" style="font-family: sans-serif; font-size: 11px; font-weight: normal; fill: black;">bacteria_download_genomes</text><text text-anchor="start" transform="translate(498.29,589)" style="font-family: sans-serif; font-size: 11px; font-weight: normal; fill: black;">bacteria_index</text><text text-anchor="start" transform="translate(411.29,661)" style="font-family: sans-serif; font-size: 11px; font-weight: normal; fill: black;">bacteria_mapping</text><text text-anchor="start" transform="translate(280.29,733)" style="font-family: sans-serif; font-size: 11px; font-weight: normal; fill: black;">download_ncbi_taxdump</text><text text-anchor="start" transform="translate(277.29,157)" style="font-family: sans-serif; font-size: 11px; font-weight: normal; fill: black;">download_repeat_masker</text><text text-anchor="start" transform="translate(71.294,85)" style="font-family: sans-serif; font-size: 11px; font-weight: normal; fill: black;">download_silva</text><text text-anchor="start" transform="translate(109.29,157)" style="font-family: sans-serif; font-size: 11px; font-weight: normal; fill: black;">filter_silva</text><text text-anchor="start" transform="translate(621.29,373)" style="font-family: sans-serif; font-size: 11px; font-weight: normal; fill: black;">genome_count</text><text text-anchor="start" transform="translate(474.29,157)" style="font-family: sans-serif; font-size: 11px; font-weight: normal; fill: black;">genome_download</text><text text-anchor="start" transform="translate(474.29,229)" style="font-family: sans-serif; font-size: 11px; font-weight: normal; fill: black;">genome_index</text><text text-anchor="start" transform="translate(474.29,301)" style="font-family: sans-serif; font-size: 11px; font-weight: normal; fill: black;">genome_mapping</text><text text-anchor="start" transform="translate(671.29,301)" style="font-family: sans-serif; font-size: 11px; font-weight: normal; fill: black;">make_genome_annotation</text><text text-anchor="start" transform="translate(277.29,229)" style="font-family: sans-serif; font-size: 11px; font-weight: normal; fill: black;">make_re_fasta</text><text text-anchor="start" transform="translate(121.29,301)" style="font-family: sans-serif; font-size: 11px; font-weight: normal; fill: black;">make_silva</text><text text-anchor="start" transform="translate(621.29,661)" style="font-family: sans-serif; font-size: 11px; font-weight: normal; fill: black;">organize_endogenous_counts</text><text text-anchor="start" transform="translate(493.29,949)" style="font-family: sans-serif; font-size: 11px; font-weight: normal; fill: black;">organize_exogenous</text><text text-anchor="start" transform="translate(516.29,85)" style="font-family: sans-serif; font-size: 11px; font-weight: normal; fill: black;">preprocess</text><text text-anchor="start" transform="translate(277.29,301)" style="font-family: sans-serif; font-size: 11px; font-weight: normal; fill: black;">re_index</text><text text-anchor="start" transform="translate(277.29,373)" style="font-family: sans-serif; font-size: 11px; font-weight: normal; fill: black;">re_mapping</text><text text-anchor="start" transform="translate(789.29,157)" style="font-family: sans-serif; font-size: 11px; font-weight: normal; fill: black;">rrna_index</text><text text-anchor="start" transform="translate(801.29,85)" style="font-family: sans-serif; font-size: 11px; font-weight: normal; fill: black;">rrna_make_sequence</text><text text-anchor="start" transform="translate(640.29,229)" style="font-family: sans-serif; font-size: 11px; font-weight: normal; fill: black;">rrna_mapping</text><text text-anchor="start" transform="translate(170.29,517)" style="font-family: sans-serif; font-size: 11px; font-weight: normal; fill: black;">silva_combine</text><text text-anchor="start" transform="translate(284.29,877)" style="font-family: sans-serif; font-size: 11px; font-weight: normal; fill: black;">silva_count_combine</text><text text-anchor="start" transform="translate(280.29,805)" style="font-family: sans-serif; font-size: 11px; font-weight: normal; fill: black;">silva_count_taxa</text><text text-anchor="start" transform="translate(277.29,589)" style="font-family: sans-serif; font-size: 11px; font-weight: normal; fill: black;">silva_extract_unmapped</text><text text-anchor="start" transform="translate(143.29,373)" style="font-family: sans-serif; font-size: 11px; font-weight: normal; fill: black;">silva_index</text><text text-anchor="start" transform="translate(170.29,445)" style="font-family: sans-serif; font-size: 11px; font-weight: normal; fill: black;">silva_mapping</text><text text-anchor="start" transform="translate(109.29,229)" style="font-family: sans-serif; font-size: 11px; font-weight: normal; fill: black;">solve_silva_taxa</text><text text-anchor="start" transform="translate(621.29,517)" style="font-family: sans-serif; font-size: 11px; font-weight: normal; fill: black;">summarize_counts</text><text text-anchor="start" transform="translate(640.29,13)" style="font-family: sans-serif; font-size: 11px; font-weight: normal; fill: black;">univec_get_sequence</text><text text-anchor="start" transform="translate(640.29,85)" style="font-family: sans-serif; font-size: 11px; font-weight: normal; fill: black;">univec_index</text><text text-anchor="start" transform="translate(640.29,157)" style="font-family: sans-serif; font-size: 11px; font-weight: normal; fill: black;">univec_mapping</text></g></g></g></g></g></svg>