<svg class="marks" width="1064.29" height="1046" viewBox="0 0 1064.29 1046" version="1.1" xmlns="http://www.w3.org/2000/svg" xmlns:xlink="http://www.w3.org/1999/xlink"><g transform="translate(0,0)"><g class="mark-group role-frame root"><g transform="translate(0,0)"><path class="background" d="M0,0h1064.29v1046h-1064.29Z" style="fill: none;"></path><g><g class="mark-path role-mark" style="pointer-events: none;"><path transform="translate(0,0)" d="M465.29388380756194,594.0009407119718C465.29388380756194,558.006600524114 481.2886367637183,558.006600524114 481.2886367637183,522.0122603362562" style="fill: none; stroke: #ccc; stroke-width: 0.5;"></path><path transform="translate(0,0)" d="M489.26830598795993,809.992327398954C489.26830598795993,773.9956425533627 496.28705974525883,773.9956425533627 496.28705974525883,737.9989577077714" style="fill: none; stroke: #ccc; stroke-width: 0.5;"></path><path transform="translate(0,0)" d="M489.29791159445375,953.9942342202481C489.29791159445375,917.9971149930121 489.2900001077048,917.9971149930121 489.2900001077048,881.9999957657761" style="fill: none; stroke: #ccc; stroke-width: 0.5;"></path><path transform="translate(0,0)" d="M489.2900001077048,881.9999957657761C489.2900001077048,845.9961615823651 489.26830598795993,845.9961615823651 489.26830598795993,809.992327398954" style="fill: none; stroke: #ccc; stroke-width: 0.5;"></path><path transform="translate(0,0)" d="M481.2886367637183,522.0122603362562C481.2886367637183,486.0167073099201 481.28999937857293,486.0167073099201 481.28999937857293,450.021154283584" style="fill: none; stroke: #ccc; stroke-width: 0.5;"></path><path transform="translate(0,0)" d="M480.2746719406382,665.9843469763823C480.2746719406382,629.9926438441771 465.29388380756194,629.9926438441771 465.29388380756194,594.0009407119718" style="fill: none; stroke: #ccc; stroke-width: 0.5;"></path><path transform="translate(0,0)" d="M496.28705974525883,737.9989577077714C496.28705974525883,701.9916523420768 480.2746719406382,701.9916523420768 480.2746719406382,665.9843469763823" style="fill: none; stroke: #ccc; stroke-width: 0.5;"></path><path transform="translate(0,0)" d="M481.2886367637183,522.0122603362562C481.2886367637183,593.9983036563192 480.2746719406382,593.9983036563192 480.2746719406382,665.9843469763823" style="fill: none; stroke: #ccc; stroke-width: 0.5;"></path><path transform="translate(0,0)" d="M280.2785349515769,809.9734989629649C280.2785349515769,773.9967254904928 280.3233654635458,773.9967254904928 280.3233654635458,738.0199520180208" style="fill: none; stroke: #ccc; stroke-width: 0.5;"></path><path transform="translate(0,0)" d="M489.26830598795993,809.992327398954C489.26830598795993,774.0061397084874 280.3233654635458,774.0061397084874 280.3233654635458,738.0199520180208" style="fill: none; stroke: #ccc; stroke-width: 0.5;"></path><path transform="translate(0,0)" d="M273.2899673920775,233.99765222957473C273.2899673920775,198.0082265969707 272.2902611245051,198.0082265969707 272.2902611245051,162.01880096436665" style="fill: none; stroke: #ccc; stroke-width: 0.5;"></path><path transform="translate(0,0)" d="M104.28805435215847,233.98576977239162C104.28805435215847,162.00740848015022 66.30363863341766,162.00740848015022 66.30363863341766,90.02904718790884" style="fill: none; stroke: #ccc; stroke-width: 0.5;"></path><path transform="translate(0,0)" d="M104.28605259542101,162.00097966035912C104.28605259542101,126.01501342413398 66.30363863341766,126.01501342413398 66.30363863341766,90.02904718790884" style="fill: none; stroke: #ccc; stroke-width: 0.5;"></path><path transform="translate(0,0)" d="M699.2862118028455,521.985560202381C699.2862118028455,449.9927919092788 671.2727333644536,449.9927919092788 671.2727333644536,378.0000236161767" style="fill: none; stroke: #ccc; stroke-width: 0.5;"></path><path transform="translate(0,0)" d="M773.2814031374146,1025.9005120704849C773.2814031374146,845.980257903513 708.3016189917729,845.980257903513 708.3016189917729,666.0600037365411" style="fill: none; stroke: #ccc; stroke-width: 0.5;"></path><path transform="translate(0,0)" d="M773.2814031374146,1025.9005120704849C773.2814031374146,989.8798477395644 820.2927764987329,989.8798477395644 820.2927764987329,953.859183408644" style="fill: none; stroke: #ccc; stroke-width: 0.5;"></path><path transform="translate(0,0)" d="M104.28805435215847,233.98576977239162C104.28805435215847,197.99337471637537 104.28605259542101,197.99337471637537 104.28605259542101,162.00097966035912" style="fill: none; stroke: #ccc; stroke-width: 0.5;"></path><path transform="translate(0,0)" d="M470.29013066102266,234.00000457878832C470.29013066102266,198.00940277157747 469.2902611245051,198.00940277157747 469.2902611245051,162.01880096436665" style="fill: none; stroke: #ccc; stroke-width: 0.5;"></path><path transform="translate(0,0)" d="M472.3021563056543,306.000294909278C472.3021563056543,270.00014974403314 470.29013066102266,270.00014974403314 470.29013066102266,234.00000457878832" style="fill: none; stroke: #ccc; stroke-width: 0.5;"></path><path transform="translate(0,0)" d="M671.2727333644536,378.0000236161767C671.2727333644536,342.0001592627274 472.3021563056543,342.0001592627274 472.3021563056543,306.000294909278" style="fill: none; stroke: #ccc; stroke-width: 0.5;"></path><path transform="translate(0,0)" d="M275.2943289039544,378.0120053081273C275.2943289039544,342.0061501087026 472.3021563056543,342.0061501087026 472.3021563056543,306.000294909278" style="fill: none; stroke: #ccc; stroke-width: 0.5;"></path><path transform="translate(0,0)" d="M671.2727333644536,378.0000236161767C671.2727333644536,342.01058946180717 671.2899915444262,342.01058946180717 671.2899915444262,306.0211553074376" style="fill: none; stroke: #ccc; stroke-width: 0.5;"></path><path transform="translate(0,0)" d="M274.2900354655909,306.0023485571302C274.2900354655909,270.0000003933525 273.2899673920775,270.0000003933525 273.2899673920775,233.99765222957473" style="fill: none; stroke: #ccc; stroke-width: 0.5;"></path><path transform="translate(0,0)" d="M151.28770610449465,378.00121815346404C151.28770610449465,341.9998895421205 127.28964138880109,341.9998895421205 127.28964138880109,305.99856093077693" style="fill: none; stroke: #ccc; stroke-width: 0.5;"></path><path transform="translate(0,0)" d="M708.3016189917729,666.0600037365411C708.3016189917729,630.0300083137836 703.2900997061951,630.0300083137836 703.2900997061951,594.0000128910259" style="fill: none; stroke: #ccc; stroke-width: 0.5;"></path><path transform="translate(0,0)" d="M773.2814031374146,1025.9005120704849C773.2814031374146,989.9473731453666 489.29791159445375,989.9473731453666 489.29791159445375,953.9942342202481" style="fill: none; stroke: #ccc; stroke-width: 0.5;"></path><path transform="translate(0,0)" d="M944.2454775973373,450.0500294339196C944.2454775973373,270.09844434171185 874.2812952271397,270.09844434171185 874.2812952271397,90.14685924950413" style="fill: none; stroke: #ccc; stroke-width: 0.5;"></path><path transform="translate(0,0)" d="M820.2927764987329,953.859183408644C820.2927764987329,522.003021329074 874.2812952271397,522.003021329074 874.2812952271397,90.14685924950413" style="fill: none; stroke: #ccc; stroke-width: 0.5;"></path><path transform="translate(0,0)" d="M750.2888406392311,161.99446746715074C750.2888406392311,126.07066335832744 874.2812952271397,126.07066335832744 874.2812952271397,90.14685924950413" style="fill: none; stroke: #ccc; stroke-width: 0.5;"></path><path transform="translate(0,0)" d="M773.2814031374146,1025.9005120704849C773.2814031374146,737.9752707522023 944.2454775973373,737.9752707522023 944.2454775973373,450.0500294339196" style="fill: none; stroke: #ccc; stroke-width: 0.5;"></path><path transform="translate(0,0)" d="M275.2943289039544,378.0120053081273C275.2943289039544,342.00717693262874 274.2900354655909,342.00717693262874 274.2900354655909,306.0023485571302" style="fill: none; stroke: #ccc; stroke-width: 0.5;"></path><path transform="translate(0,0)" d="M152.30151485783276,449.99228012899835C152.30151485783276,414.0021427185628 275.2943289039544,414.0021427185628 275.2943289039544,378.0120053081273" style="fill: none; stroke: #ccc; stroke-width: 0.5;"></path><path transform="translate(0,0)" d="M276.3002862524423,593.9795137943644C276.3002862524423,485.99575955124584 275.2943289039544,485.99575955124584 275.2943289039544,378.0120053081273" style="fill: none; stroke: #ccc; stroke-width: 0.5;"></path><path transform="translate(0,0)" d="M614.2877144497442,233.9952658953831C614.2877144497442,197.99702327159986 614.2866397719228,197.99702327159986 614.2866397719228,161.99878064781663" style="fill: none; stroke: #ccc; stroke-width: 0.5;"></path><path transform="translate(0,0)" d="M614.2866397719228,161.99878064781663C614.2866397719228,126.00906967609168 589.2967204562602,126.00906967609168 589.2967204562602,90.01935870436675" style="fill: none; stroke: #ccc; stroke-width: 0.5;"></path><path transform="translate(0,0)" d="M472.3021563056543,306.000294909278C472.3021563056543,269.9977804023306 614.2877144497442,269.9977804023306 614.2877144497442,233.9952658953831" style="fill: none; stroke: #ccc; stroke-width: 0.5;"></path><path transform="translate(0,0)" d="M280.2785349515769,809.9734989629649C280.2785349515769,666.0006217657012 152.31201900630202,666.0006217657012 152.31201900630202,522.0277445684377" style="fill: none; stroke: #ccc; stroke-width: 0.5;"></path><path transform="translate(0,0)" d="M276.3002862524423,593.9795137943644C276.3002862524423,558.003629181401 152.31201900630202,558.003629181401 152.31201900630202,522.0277445684377" style="fill: none; stroke: #ccc; stroke-width: 0.5;"></path><path transform="translate(0,0)" d="M489.29791159445375,953.9942342202481C489.29791159445375,917.998611799339 284.32218370158677,917.998611799339 284.32218370158677,882.0029893784298" style="fill: none; stroke: #ccc; stroke-width: 0.5;"></path><path transform="translate(0,0)" d="M284.32218370158677,882.0029893784298C284.32218370158677,845.9882441706973 280.2785349515769,845.9882441706973 280.2785349515769,809.9734989629649" style="fill: none; stroke: #ccc; stroke-width: 0.5;"></path><path transform="translate(0,0)" d="M480.2746719406382,665.9843469763823C480.2746719406382,629.9819303853733 276.3002862524423,629.9819303853733 276.3002862524423,593.9795137943644" style="fill: none; stroke: #ccc; stroke-width: 0.5;"></path><path transform="translate(0,0)" d="M152.30151485783276,449.99228012899835C152.30151485783276,413.9967491412312 151.28770610449465,413.9967491412312 151.28770610449465,378.00121815346404" style="fill: none; stroke: #ccc; stroke-width: 0.5;"></path><path transform="translate(0,0)" d="M152.31201900630202,522.0277445684377C152.31201900630202,486.010012348718 152.30151485783276,486.010012348718 152.30151485783276,449.99228012899835" style="fill: none; stroke: #ccc; stroke-width: 0.5;"></path><path transform="translate(0,0)" d="M127.28964138880109,305.99856093077693C127.28964138880109,269.9921653515843 104.28805435215847,269.9921653515843 104.28805435215847,233.98576977239162" style="fill: none; stroke: #ccc; stroke-width: 0.5;"></path><path transform="translate(0,0)" d="M703.2900997061951,594.0000128910259C703.2900997061951,557.9927865467034 699.2862118028455,557.9927865467034 699.2862118028455,521.985560202381" style="fill: none; stroke: #ccc; stroke-width: 0.5;"></path><path transform="translate(0,0)" d="M750.2900020047662,89.99906104284894C750.2900020047662,54.00893052142447 750.2899999999327,54.00893052142447 750.2899999999327,18.0188" style="fill: none; stroke: #ccc; stroke-width: 0.5;"></path><path transform="translate(0,0)" d="M750.2888406392311,161.99446746715074C750.2888406392311,125.99676425499985 750.2900020047662,125.99676425499985 750.2900020047662,89.99906104284894" style="fill: none; stroke: #ccc; stroke-width: 0.5;"></path><path transform="translate(0,0)" d="M614.2877144497442,233.9952658953831C614.2877144497442,197.99486668126693 750.2888406392311,197.99486668126693 750.2888406392311,161.99446746715074" style="fill: none; stroke: #ccc; stroke-width: 0.5;"></path></g><g class="mark-symbol role-mark nodes"><path transform="translate(773.2814031374146,1025.9005120704849)" d="M4,0A4,4,0,1,1,-4,0A4,4,0,1,1,4,0" style="fill: #3182bd;"></path><path transform="translate(481.2886367637183,522.0122603362562)" d="M4,0A4,4,0,1,1,-4,0A4,4,0,1,1,4,0" style="fill: #6baed6;"></path><path transform="translate(496.28705974525883,737.9989577077714)" d="M4,0A4,4,0,1,1,-4,0A4,4,0,1,1,4,0" style="fill: #9ecae1;"></path><path transform="translate(489.2900001077048,881.9999957657761)" d="M4,0A4,4,0,1,1,-4,0A4,4,0,1,1,4,0" style="fill: #c6dbef;"></path><path transform="translate(489.26830598795993,809.992327398954)" d="M4,0A4,4,0,1,1,-4,0A4,4,0,1,1,4,0" style="fill: #e6550d;"></path><path transform="translate(481.28999937857293,450.021154283584)" d="M4,0A4,4,0,1,1,-4,0A4,4,0,1,1,4,0" style="fill: #fd8d3c;"></path><path transform="translate(465.29388380756194,594.0009407119718)" d="M4,0A4,4,0,1,1,-4,0A4,4,0,1,1,4,0" style="fill: #fdae6b;"></path><path transform="translate(480.2746719406382,665.9843469763823)" d="M4,0A4,4,0,1,1,-4,0A4,4,0,1,1,4,0" style="fill: #fdd0a2;"></path><path transform="translate(280.3233654635458,738.0199520180208)" d="M4,0A4,4,0,1,1,-4,0A4,4,0,1,1,4,0" style="fill: #31a354;"></path><path transform="translate(272.2902611245051,162.01880096436665)" d="M4,0A4,4,0,1,1,-4,0A4,4,0,1,1,4,0" style="fill: #74c476;"></path><path transform="translate(66.30363863341766,90.02904718790884)" d="M4,0A4,4,0,1,1,-4,0A4,4,0,1,1,4,0" style="fill: #a1d99b;"></path><path transform="translate(671.2727333644536,378.0000236161767)" d="M4,0A4,4,0,1,1,-4,0A4,4,0,1,1,4,0" style="fill: #c7e9c0;"></path><path transform="translate(708.3016189917729,666.0600037365411)" d="M4,0A4,4,0,1,1,-4,0A4,4,0,1,1,4,0" style="fill: #756bb1;"></path><path transform="translate(820.2927764987329,953.859183408644)" d="M4,0A4,4,0,1,1,-4,0A4,4,0,1,1,4,0" style="fill: #9e9ac8;"></path><path transform="translate(104.28605259542101,162.00097966035912)" d="M4,0A4,4,0,1,1,-4,0A4,4,0,1,1,4,0" style="fill: #bcbddc;"></path><path transform="translate(469.2902611245051,162.01880096436665)" d="M4,0A4,4,0,1,1,-4,0A4,4,0,1,1,4,0" style="fill: #dadaeb;"></path><path transform="translate(470.29013066102266,234.00000457878832)" d="M4,0A4,4,0,1,1,-4,0A4,4,0,1,1,4,0" style="fill: #636363;"></path><path transform="translate(472.3021563056543,306.000294909278)" d="M4,0A4,4,0,1,1,-4,0A4,4,0,1,1,4,0" style="fill: #969696;"></path><path transform="translate(671.2899915444262,306.0211553074376)" d="M4,0A4,4,0,1,1,-4,0A4,4,0,1,1,4,0" style="fill: #bdbdbd;"></path><path transform="translate(273.2899673920775,233.99765222957473)" d="M4,0A4,4,0,1,1,-4,0A4,4,0,1,1,4,0" style="fill: #d9d9d9;"></path><path transform="translate(127.28964138880109,305.99856093077693)" d="M4,0A4,4,0,1,1,-4,0A4,4,0,1,1,4,0" style="fill: #3182bd;"></path><path transform="translate(703.2900997061951,594.0000128910259)" d="M4,0A4,4,0,1,1,-4,0A4,4,0,1,1,4,0" style="fill: #6baed6;"></path><path transform="translate(489.29791159445375,953.9942342202481)" d="M4,0A4,4,0,1,1,-4,0A4,4,0,1,1,4,0" style="fill: #9ecae1;"></path><path transform="translate(874.2812952271397,90.14685924950413)" d="M4,0A4,4,0,1,1,-4,0A4,4,0,1,1,4,0" style="fill: #c6dbef;"></path><path transform="translate(944.2454775973373,450.0500294339196)" d="M4,0A4,4,0,1,1,-4,0A4,4,0,1,1,4,0" style="fill: #e6550d;"></path><path transform="translate(274.2900354655909,306.0023485571302)" d="M4,0A4,4,0,1,1,-4,0A4,4,0,1,1,4,0" style="fill: #fd8d3c;"></path><path transform="translate(275.2943289039544,378.0120053081273)" d="M4,0A4,4,0,1,1,-4,0A4,4,0,1,1,4,0" style="fill: #fdae6b;"></path><path transform="translate(614.2866397719228,161.99878064781663)" d="M4,0A4,4,0,1,1,-4,0A4,4,0,1,1,4,0" style="fill: #fdd0a2;"></path><path transform="translate(589.2967204562602,90.01935870436675)" d="M4,0A4,4,0,1,1,-4,0A4,4,0,1,1,4,0" style="fill: #31a354;"></path><path transform="translate(614.2877144497442,233.9952658953831)" d="M4,0A4,4,0,1,1,-4,0A4,4,0,1,1,4,0" style="fill: #74c476;"></path><path transform="translate(152.31201900630202,522.0277445684377)" d="M4,0A4,4,0,1,1,-4,0A4,4,0,1,1,4,0" style="fill: #a1d99b;"></path><path transform="translate(284.32218370158677,882.0029893784298)" d="M4,0A4,4,0,1,1,-4,0A4,4,0,1,1,4,0" style="fill: #c7e9c0;"></path><path transform="translate(280.2785349515769,809.9734989629649)" d="M4,0A4,4,0,1,1,-4,0A4,4,0,1,1,4,0" style="fill: #756bb1;"></path><path transform="translate(276.3002862524423,593.9795137943644)" d="M4,0A4,4,0,1,1,-4,0A4,4,0,1,1,4,0" style="fill: #9e9ac8;"></path><path transform="translate(151.28770610449465,378.00121815346404)" d="M4,0A4,4,0,1,1,-4,0A4,4,0,1,1,4,0" style="fill: #bcbddc;"></path><path transform="translate(152.30151485783276,449.99228012899835)" d="M4,0A4,4,0,1,1,-4,0A4,4,0,1,1,4,0" style="fill: #dadaeb;"></path><path transform="translate(104.28805435215847,233.98576977239162)" d="M4,0A4,4,0,1,1,-4,0A4,4,0,1,1,4,0" style="fill: #636363;"></path><path transform="translate(699.2862118028455,521.985560202381)" d="M4,0A4,4,0,1,1,-4,0A4,4,0,1,1,4,0" style="fill: #969696;"></path><path transform="translate(750.2899999999327,18.0188)" d="M4,0A4,4,0,1,1,-4,0A4,4,0,1,1,4,0" style="fill: #bdbdbd;"></path><path transform="translate(750.2900020047662,89.99906104284894)" d="M4,0A4,4,0,1,1,-4,0A4,4,0,1,1,4,0" style="fill: #d9d9d9;"></path><path transform="translate(750.2888406392311,161.99446746715074)" d="M4,0A4,4,0,1,1,-4,0A4,4,0,1,1,4,0" style="fill: #3182bd;"></path></g><g class="mark-text role-mark labels"><text text-anchor="start" transform="translate(778.29,1021)" style="font-family: sans-serif; font-size: 11px; font-weight: normal; fill: black;">all</text><text text-anchor="start" transform="translate(486.29,517)" style="font-family: sans-serif; font-size: 11px; font-weight: normal; fill: black;">bacteria_combine_genome</text><text text-anchor="start" transform="translate(501.29,733)" style="font-family: sans-serif; font-size: 11px; font-weight: normal; fill: black;">bacteria_combine_result</text><text text-anchor="start" transform="translate(494.29,877)" style="font-family: sans-serif; font-size: 11px; font-weight: normal; fill: black;">bacteria_count_combine</text><text text-anchor="start" transform="translate(494.29,805)" style="font-family: sans-serif; font-size: 11px; font-weight: normal; fill: black;">bacteria_count_taxa</text><text text-anchor="start" transform="translate(486.29,445)" style="font-family: sans-serif; font-size: 11px; font-weight: normal; fill: black;">bacteria_download_genomes</text><text text-anchor="start" transform="translate(470.29,589)" style="font-family: sans-serif; font-size: 11px; font-weight: normal; fill: black;">bacteria_index</text><text text-anchor="start" transform="translate(485.29,661)" style="font-family: sans-serif; font-size: 11px; font-weight: normal; fill: black;">bacteria_mapping</text><text text-anchor="start" transform="translate(285.29,733)" style="font-family: sans-serif; font-size: 11px; font-weight: normal; fill: black;">download_ncbi_taxdump</text><text text-anchor="start" transform="translate(277.29,157)" style="font-family: sans-serif; font-size: 11px; font-weight: normal; fill: black;">download_repeat_masker</text><text text-anchor="start" transform="translate(71.294,85)" style="font-family: sans-serif; font-size: 11px; font-weight: normal; fill: black;">download_silva</text><text text-anchor="start" transform="translate(676.29,373)" style="font-family: sans-serif; font-size: 11px; font-weight: normal; fill: black;">endogenous_count</text><text text-anchor="start" transform="translate(713.29,661)" style="font-family: sans-serif; font-size: 11px; font-weight: normal; fill: black;">endogenous_count_barplot</text><text text-anchor="start" transform="translate(825.29,949)" style="font-family: sans-serif; font-size: 11px; font-weight: normal; fill: black;">fastqc</text><text text-anchor="start" transform="translate(109.29,157)" style="font-family: sans-serif; font-size: 11px; font-weight: normal; fill: black;">filter_silva</text><text text-anchor="start" transform="translate(474.29,157)" style="font-family: sans-serif; font-size: 11px; font-weight: normal; fill: black;">genome_download</text><text text-anchor="start" transform="translate(475.29,229)" style="font-family: sans-serif; font-size: 11px; font-weight: normal; fill: black;">genome_index</text><text text-anchor="start" transform="translate(477.29,301)" style="font-family: sans-serif; font-size: 11px; font-weight: normal; fill: black;">genome_mapping</text><text text-anchor="start" transform="translate(676.29,301)" style="font-family: sans-serif; font-size: 11px; font-weight: normal; fill: black;">make_genome_annotation</text><text text-anchor="start" transform="translate(278.29,229)" style="font-family: sans-serif; font-size: 11px; font-weight: normal; fill: black;">make_re_fasta</text><text text-anchor="start" transform="translate(132.29000000000002,301)" style="font-family: sans-serif; font-size: 11px; font-weight: normal; fill: black;">make_silva</text><text text-anchor="start" transform="translate(708.29,589)" style="font-family: sans-serif; font-size: 11px; font-weight: normal; fill: black;">organize_endogenous_counts</text><text text-anchor="start" transform="translate(494.29,949)" style="font-family: sans-serif; font-size: 11px; font-weight: normal; fill: black;">organize_exogenous</text><text text-anchor="start" transform="translate(879.29,85)" style="font-family: sans-serif; font-size: 11px; font-weight: normal; fill: black;">preprocess</text><text text-anchor="start" transform="translate(949.29,445)" style="font-family: sans-serif; font-size: 11px; font-weight: normal; fill: black;">preprocess_stats</text><text text-anchor="start" transform="translate(279.29,301)" style="font-family: sans-serif; font-size: 11px; font-weight: normal; fill: black;">re_index</text><text text-anchor="start" transform="translate(280.29,373)" style="font-family: sans-serif; font-size: 11px; font-weight: normal; fill: black;">re_mapping</text><text text-anchor="start" transform="translate(619.29,157)" style="font-family: sans-serif; font-size: 11px; font-weight: normal; fill: black;">rrna_index</text><text text-anchor="start" transform="translate(594.29,85)" style="font-family: sans-serif; font-size: 11px; font-weight: normal; fill: black;">rrna_make_sequence</text><text text-anchor="start" transform="translate(619.29,229)" style="font-family: sans-serif; font-size: 11px; font-weight: normal; fill: black;">rrna_mapping</text><text text-anchor="start" transform="translate(157.29,517)" style="font-family: sans-serif; font-size: 11px; font-weight: normal; fill: black;">silva_combine</text><text text-anchor="start" transform="translate(289.29,877)" style="font-family: sans-serif; font-size: 11px; font-weight: normal; fill: black;">silva_count_combine</text><text text-anchor="start" transform="translate(285.29,805)" style="font-family: sans-serif; font-size: 11px; font-weight: normal; fill: black;">silva_count_taxa</text><text text-anchor="start" transform="translate(281.29,589)" style="font-family: sans-serif; font-size: 11px; font-weight: normal; fill: black;">silva_extract_unmapped</text><text text-anchor="start" transform="translate(156.29,373)" style="font-family: sans-serif; font-size: 11px; font-weight: normal; fill: black;">silva_index</text><text text-anchor="start" transform="translate(157.29,445)" style="font-family: sans-serif; font-size: 11px; font-weight: normal; fill: black;">silva_mapping</text><text text-anchor="start" transform="translate(109.29,229)" style="font-family: sans-serif; font-size: 11px; font-weight: normal; fill: black;">solve_silva_taxa</text><text text-anchor="start" transform="translate(704.29,517)" style="font-family: sans-serif; font-size: 11px; font-weight: normal; fill: black;">summarize_counts</text><text text-anchor="start" transform="translate(755.29,13)" style="font-family: sans-serif; font-size: 11px; font-weight: normal; fill: black;">univec_get_sequence</text><text text-anchor="start" transform="translate(755.29,85)" style="font-family: sans-serif; font-size: 11px; font-weight: normal; fill: black;">univec_index</text><text text-anchor="start" transform="translate(755.29,157)" style="font-family: sans-serif; font-size: 11px; font-weight: normal; fill: black;">univec_mapping</text></g></g></g></g></g></svg>