<svg class="marks" width="1064.29" height="1046" viewBox="0 0 1064.29 1046" version="1.1" xmlns="http://www.w3.org/2000/svg" xmlns:xlink="http://www.w3.org/1999/xlink"><g transform="translate(0,0)"><g class="mark-group role-frame root"><g transform="translate(0,0)"><path class="background" d="M0,0h1064.29v1046h-1064.29Z" style="fill: none;"></path><g><g class="mark-path role-mark" style="pointer-events: none;"><path transform="translate(0,0)" d="M470.2934491482108,594.0010572853927C470.2934491482108,558.0066374337857 479.29014269273296,558.0066374337857 479.29014269273296,522.0122175821787" style="fill: none; stroke: #ccc; stroke-width: 0.5;"></path><path transform="translate(0,0)" d="M500.26830598795993,809.992327398954C500.26830598795993,773.995619342917 507.2866507678469,773.995619342917 507.2866507678469,737.9989112868802" style="fill: none; stroke: #ccc; stroke-width: 0.5;"></path><path transform="translate(0,0)" d="M500.29711603915246,953.994217593492C500.29711603915246,917.997106679634 500.2900001076632,917.997106679634 500.2900001076632,881.9999957657761" style="fill: none; stroke: #ccc; stroke-width: 0.5;"></path><path transform="translate(0,0)" d="M500.2900001076632,881.9999957657761C500.2900001076632,845.9961615823651 500.26830598795993,845.9961615823651 500.26830598795993,809.992327398954" style="fill: none; stroke: #ccc; stroke-width: 0.5;"></path><path transform="translate(0,0)" d="M479.29014269273296,522.0122175821787C479.29014269273296,486.01668591477744 479.2899996534019,486.01668591477744 479.2899996534019,450.0211542473763" style="fill: none; stroke: #ccc; stroke-width: 0.5;"></path><path transform="translate(0,0)" d="M488.2742180419031,665.9843534186069C488.2742180419031,629.9927053519998 470.2934491482108,629.9927053519998 470.2934491482108,594.0010572853927" style="fill: none; stroke: #ccc; stroke-width: 0.5;"></path><path transform="translate(0,0)" d="M507.2866507678469,737.9989112868802C507.2866507678469,701.9916323527436 488.2742180419031,701.9916323527436 488.2742180419031,665.9843534186069" style="fill: none; stroke: #ccc; stroke-width: 0.5;"></path><path transform="translate(0,0)" d="M479.29014269273296,522.0122175821787C479.29014269273296,593.9982855003927 488.2742180419031,593.9982855003927 488.2742180419031,665.9843534186069" style="fill: none; stroke: #ccc; stroke-width: 0.5;"></path><path transform="translate(0,0)" d="M291.2785349515345,809.9734989629613C291.2785349515345,773.9967254904911 291.32336546356305,773.9967254904911 291.32336546356305,738.0199520180208" style="fill: none; stroke: #ccc; stroke-width: 0.5;"></path><path transform="translate(0,0)" d="M500.26830598795993,809.992327398954C500.26830598795993,774.0061397084874 291.32336546356305,774.0061397084874 291.32336546356305,738.0199520180208" style="fill: none; stroke: #ccc; stroke-width: 0.5;"></path><path transform="translate(0,0)" d="M273.2899673920775,233.99765222957473C273.2899673920775,198.0082265969707 272.2902611245051,198.0082265969707 272.2902611245051,162.01880096436665" style="fill: none; stroke: #ccc; stroke-width: 0.5;"></path><path transform="translate(0,0)" d="M104.28847992073261,233.98583141876716C104.28847992073261,162.007439303338 66.30363863341766,162.007439303338 66.30363863341766,90.02904718790884" style="fill: none; stroke: #ccc; stroke-width: 0.5;"></path><path transform="translate(0,0)" d="M104.28605259542101,162.00097966035912C104.28605259542101,126.01501342413398 66.30363863341766,126.01501342413398 66.30363863341766,90.02904718790884" style="fill: none; stroke: #ccc; stroke-width: 0.5;"></path><path transform="translate(0,0)" d="M777.2817378385087,1025.9004585892408C777.2817378385087,845.9802364401933 709.3022775823841,845.9802364401933 709.3022775823841,666.0600142911456" style="fill: none; stroke: #ccc; stroke-width: 0.5;"></path><path transform="translate(0,0)" d="M777.2817378385087,1025.9004585892408C777.2817378385087,989.87988912543 829.2903976123997,989.87988912543 829.2903976123997,953.8593196616192" style="fill: none; stroke: #ccc; stroke-width: 0.5;"></path><path transform="translate(0,0)" d="M104.28847992073261,233.98583141876716C104.28847992073261,197.99340553956313 104.28605259542101,197.99340553956313 104.28605259542101,162.00097966035912" style="fill: none; stroke: #ccc; stroke-width: 0.5;"></path><path transform="translate(0,0)" d="M690.288804330263,521.985681157098C690.288804330263,449.99283640287484 672.2717342080432,449.99283640287484 672.2717342080432,377.99999164865164" style="fill: none; stroke: #ccc; stroke-width: 0.5;"></path><path transform="translate(0,0)" d="M470.2902613586823,234.00000698468963C470.2902613586823,198.00940397452814 469.2902611245051,198.00940397452814 469.2902611245051,162.01880096436665" style="fill: none; stroke: #ccc; stroke-width: 0.5;"></path><path transform="translate(0,0)" d="M473.3023035360281,306.000287434978C473.3023035360281,270.0001472098338 470.2902613586823,270.0001472098338 470.2902613586823,234.00000698468963" style="fill: none; stroke: #ccc; stroke-width: 0.5;"></path><path transform="translate(0,0)" d="M672.2717342080432,377.99999164865164C672.2717342080432,342.00013954181486 473.3023035360281,342.00013954181486 473.3023035360281,306.000287434978" style="fill: none; stroke: #ccc; stroke-width: 0.5;"></path><path transform="translate(0,0)" d="M280.29465098995354,378.0119691491216C280.29465098995354,342.0061282920498 473.3023035360281,342.0061282920498 473.3023035360281,306.000287434978" style="fill: none; stroke: #ccc; stroke-width: 0.5;"></path><path transform="translate(0,0)" d="M672.2717342080432,377.99999164865164C672.2717342080432,342.0105734661073 672.289991055137,342.0105734661073 672.289991055137,306.021155283563" style="fill: none; stroke: #ccc; stroke-width: 0.5;"></path><path transform="translate(0,0)" d="M274.2906896448641,306.00236544953054C274.2906896448641,270.0000088395526 273.2899673920775,270.0000088395526 273.2899673920775,233.99765222957473" style="fill: none; stroke: #ccc; stroke-width: 0.5;"></path><path transform="translate(0,0)" d="M151.28952960758133,378.0013474488334C151.28952960758133,341.9998737980354 132.28848206158278,341.9998737980354 132.28848206158278,305.9984001472375" style="fill: none; stroke: #ccc; stroke-width: 0.5;"></path><path transform="translate(0,0)" d="M709.3022775823841,666.0600142911456C709.3022775823841,630.0299754864194 705.2889082097846,630.0299754864194 705.2889082097846,593.9999366816932" style="fill: none; stroke: #ccc; stroke-width: 0.5;"></path><path transform="translate(0,0)" d="M777.2817378385087,1025.9004585892408C777.2817378385087,989.9473380913664 500.29711603915246,989.9473380913664 500.29711603915246,953.994217593492" style="fill: none; stroke: #ccc; stroke-width: 0.5;"></path><path transform="translate(0,0)" d="M944.2462471533881,450.05002041125834C944.2462471533881,270.0984389593114 874.2823438054377,270.0984389593114 874.2823438054377,90.14685750736447" style="fill: none; stroke: #ccc; stroke-width: 0.5;"></path><path transform="translate(0,0)" d="M829.2903976123997,953.8593196616192C829.2903976123997,522.0030885844918 874.2823438054377,522.0030885844918 874.2823438054377,90.14685750736447" style="fill: none; stroke: #ccc; stroke-width: 0.5;"></path><path transform="translate(0,0)" d="M750.2888408242065,161.99446745138272C750.2888408242065,126.0706624793736 874.2823438054377,126.0706624793736 874.2823438054377,90.14685750736447" style="fill: none; stroke: #ccc; stroke-width: 0.5;"></path><path transform="translate(0,0)" d="M777.2817378385087,1025.9004585892408C777.2817378385087,737.9752395002496 944.2462471533881,737.9752395002496 944.2462471533881,450.05002041125834" style="fill: none; stroke: #ccc; stroke-width: 0.5;"></path><path transform="translate(0,0)" d="M280.29465098995354,378.0119691491216C280.29465098995354,342.00716729932606 274.2906896448641,342.00716729932606 274.2906896448641,306.00236544953054" style="fill: none; stroke: #ccc; stroke-width: 0.5;"></path><path transform="translate(0,0)" d="M163.2999932857916,449.99229352547974C163.2999932857916,414.0021313373007 280.29465098995354,414.0021313373007 280.29465098995354,378.0119691491216" style="fill: none; stroke: #ccc; stroke-width: 0.5;"></path><path transform="translate(0,0)" d="M287.29934152873,593.9794997373541C287.29934152873,485.9957344432379 280.29465098995354,485.9957344432379 280.29465098995354,378.0119691491216" style="fill: none; stroke: #ccc; stroke-width: 0.5;"></path><path transform="translate(0,0)" d="M614.2878250574904,233.99525861798662C614.2878250574904,197.99701963290164 614.2866397719237,197.99701963290164 614.2866397719237,161.99878064781663" style="fill: none; stroke: #ccc; stroke-width: 0.5;"></path><path transform="translate(0,0)" d="M614.2866397719237,161.99878064781663C614.2866397719237,126.00906967609168 589.2967204562602,126.00906967609168 589.2967204562602,90.01935870436675" style="fill: none; stroke: #ccc; stroke-width: 0.5;"></path><path transform="translate(0,0)" d="M473.3023035360281,306.000287434978C473.3023035360281,269.9977730264823 614.2878250574904,269.9977730264823 614.2878250574904,233.99525861798662" style="fill: none; stroke: #ccc; stroke-width: 0.5;"></path><path transform="translate(0,0)" d="M291.2785349515345,809.9734989629613C291.2785349515345,666.0006217628727 163.31201874401154,666.0006217628727 163.31201874401154,522.027744562784" style="fill: none; stroke: #ccc; stroke-width: 0.5;"></path><path transform="translate(0,0)" d="M287.29934152873,593.9794997373541C287.29934152873,558.0036221500691 163.31201874401154,558.0036221500691 163.31201874401154,522.027744562784" style="fill: none; stroke: #ccc; stroke-width: 0.5;"></path><path transform="translate(0,0)" d="M500.29711603915246,953.994217593492C500.29711603915246,917.9986034794315 295.3221834657544,917.9986034794315 295.3221834657544,882.0029893653711" style="fill: none; stroke: #ccc; stroke-width: 0.5;"></path><path transform="translate(0,0)" d="M295.3221834657544,882.0029893653711C295.3221834657544,845.9882441641662 291.2785349515345,845.9882441641662 291.2785349515345,809.9734989629613" style="fill: none; stroke: #ccc; stroke-width: 0.5;"></path><path transform="translate(0,0)" d="M488.2742180419031,665.9843534186069C488.2742180419031,629.9819265779805 287.29934152873,629.9819265779805 287.29934152873,593.9794997373541" style="fill: none; stroke: #ccc; stroke-width: 0.5;"></path><path transform="translate(0,0)" d="M163.2999932857916,449.99229352547974C163.2999932857916,413.9968204871566 151.28952960758133,413.9968204871566 151.28952960758133,378.0013474488334" style="fill: none; stroke: #ccc; stroke-width: 0.5;"></path><path transform="translate(0,0)" d="M163.31201874401154,522.027744562784C163.31201874401154,486.0100190441319 163.2999932857916,486.0100190441319 163.2999932857916,449.99229352547974" style="fill: none; stroke: #ccc; stroke-width: 0.5;"></path><path transform="translate(0,0)" d="M132.28848206158278,305.9984001472375C132.28848206158278,269.9921157830023 104.28847992073261,269.9921157830023 104.28847992073261,233.98583141876716" style="fill: none; stroke: #ccc; stroke-width: 0.5;"></path><path transform="translate(0,0)" d="M705.2889082097846,593.9999366816932C705.2889082097846,557.9928089193957 690.288804330263,557.9928089193957 690.288804330263,521.985681157098" style="fill: none; stroke: #ccc; stroke-width: 0.5;"></path><path transform="translate(0,0)" d="M750.2900020047448,89.9990610428449C750.2900020047448,54.00893052142245 750.2900000000409,54.00893052142245 750.2900000000409,18.0188" style="fill: none; stroke: #ccc; stroke-width: 0.5;"></path><path transform="translate(0,0)" d="M750.2888408242065,161.99446745138272C750.2888408242065,125.99676424711382 750.2900020047448,125.99676424711382 750.2900020047448,89.9990610428449" style="fill: none; stroke: #ccc; stroke-width: 0.5;"></path><path transform="translate(0,0)" d="M614.2878250574904,233.99525861798662C614.2878250574904,197.99486303468467 750.2888408242065,197.99486303468467 750.2888408242065,161.99446745138272" style="fill: none; stroke: #ccc; stroke-width: 0.5;"></path></g><g class="mark-symbol role-mark nodes"><path transform="translate(777.2817378385087,1025.9004585892408)" d="M4,0A4,4,0,1,1,-4,0A4,4,0,1,1,4,0" style="fill: #3182bd;"></path><path transform="translate(479.29014269273296,522.0122175821787)" d="M4,0A4,4,0,1,1,-4,0A4,4,0,1,1,4,0" style="fill: #6baed6;"></path><path transform="translate(507.2866507678469,737.9989112868802)" d="M4,0A4,4,0,1,1,-4,0A4,4,0,1,1,4,0" style="fill: #9ecae1;"></path><path transform="translate(500.2900001076632,881.9999957657761)" d="M4,0A4,4,0,1,1,-4,0A4,4,0,1,1,4,0" style="fill: #c6dbef;"></path><path transform="translate(500.26830598795993,809.992327398954)" d="M4,0A4,4,0,1,1,-4,0A4,4,0,1,1,4,0" style="fill: #e6550d;"></path><path transform="translate(479.2899996534019,450.0211542473763)" d="M4,0A4,4,0,1,1,-4,0A4,4,0,1,1,4,0" style="fill: #fd8d3c;"></path><path transform="translate(470.2934491482108,594.0010572853927)" d="M4,0A4,4,0,1,1,-4,0A4,4,0,1,1,4,0" style="fill: #fdae6b;"></path><path transform="translate(488.2742180419031,665.9843534186069)" d="M4,0A4,4,0,1,1,-4,0A4,4,0,1,1,4,0" style="fill: #fdd0a2;"></path><path transform="translate(291.32336546356305,738.0199520180208)" d="M4,0A4,4,0,1,1,-4,0A4,4,0,1,1,4,0" style="fill: #31a354;"></path><path transform="translate(272.2902611245051,162.01880096436665)" d="M4,0A4,4,0,1,1,-4,0A4,4,0,1,1,4,0" style="fill: #74c476;"></path><path transform="translate(66.30363863341766,90.02904718790884)" d="M4,0A4,4,0,1,1,-4,0A4,4,0,1,1,4,0" style="fill: #a1d99b;"></path><path transform="translate(709.3022775823841,666.0600142911456)" d="M4,0A4,4,0,1,1,-4,0A4,4,0,1,1,4,0" style="fill: #c7e9c0;"></path><path transform="translate(829.2903976123997,953.8593196616192)" d="M4,0A4,4,0,1,1,-4,0A4,4,0,1,1,4,0" style="fill: #756bb1;"></path><path transform="translate(104.28605259542101,162.00097966035912)" d="M4,0A4,4,0,1,1,-4,0A4,4,0,1,1,4,0" style="fill: #9e9ac8;"></path><path transform="translate(672.2717342080432,377.99999164865164)" d="M4,0A4,4,0,1,1,-4,0A4,4,0,1,1,4,0" style="fill: #bcbddc;"></path><path transform="translate(469.2902611245051,162.01880096436665)" d="M4,0A4,4,0,1,1,-4,0A4,4,0,1,1,4,0" style="fill: #dadaeb;"></path><path transform="translate(470.2902613586823,234.00000698468963)" d="M4,0A4,4,0,1,1,-4,0A4,4,0,1,1,4,0" style="fill: #636363;"></path><path transform="translate(473.3023035360281,306.000287434978)" d="M4,0A4,4,0,1,1,-4,0A4,4,0,1,1,4,0" style="fill: #969696;"></path><path transform="translate(672.289991055137,306.021155283563)" d="M4,0A4,4,0,1,1,-4,0A4,4,0,1,1,4,0" style="fill: #bdbdbd;"></path><path transform="translate(273.2899673920775,233.99765222957473)" d="M4,0A4,4,0,1,1,-4,0A4,4,0,1,1,4,0" style="fill: #d9d9d9;"></path><path transform="translate(132.28848206158278,305.9984001472375)" d="M4,0A4,4,0,1,1,-4,0A4,4,0,1,1,4,0" style="fill: #3182bd;"></path><path transform="translate(705.2889082097846,593.9999366816932)" d="M4,0A4,4,0,1,1,-4,0A4,4,0,1,1,4,0" style="fill: #6baed6;"></path><path transform="translate(500.29711603915246,953.994217593492)" d="M4,0A4,4,0,1,1,-4,0A4,4,0,1,1,4,0" style="fill: #9ecae1;"></path><path transform="translate(874.2823438054377,90.14685750736447)" d="M4,0A4,4,0,1,1,-4,0A4,4,0,1,1,4,0" style="fill: #c6dbef;"></path><path transform="translate(944.2462471533881,450.05002041125834)" d="M4,0A4,4,0,1,1,-4,0A4,4,0,1,1,4,0" style="fill: #e6550d;"></path><path transform="translate(274.2906896448641,306.00236544953054)" d="M4,0A4,4,0,1,1,-4,0A4,4,0,1,1,4,0" style="fill: #fd8d3c;"></path><path transform="translate(280.29465098995354,378.0119691491216)" d="M4,0A4,4,0,1,1,-4,0A4,4,0,1,1,4,0" style="fill: #fdae6b;"></path><path transform="translate(614.2866397719237,161.99878064781663)" d="M4,0A4,4,0,1,1,-4,0A4,4,0,1,1,4,0" style="fill: #fdd0a2;"></path><path transform="translate(589.2967204562602,90.01935870436675)" d="M4,0A4,4,0,1,1,-4,0A4,4,0,1,1,4,0" style="fill: #31a354;"></path><path transform="translate(614.2878250574904,233.99525861798662)" d="M4,0A4,4,0,1,1,-4,0A4,4,0,1,1,4,0" style="fill: #74c476;"></path><path transform="translate(163.31201874401154,522.027744562784)" d="M4,0A4,4,0,1,1,-4,0A4,4,0,1,1,4,0" style="fill: #a1d99b;"></path><path transform="translate(295.3221834657544,882.0029893653711)" d="M4,0A4,4,0,1,1,-4,0A4,4,0,1,1,4,0" style="fill: #c7e9c0;"></path><path transform="translate(291.2785349515345,809.9734989629613)" d="M4,0A4,4,0,1,1,-4,0A4,4,0,1,1,4,0" style="fill: #756bb1;"></path><path transform="translate(287.29934152873,593.9794997373541)" d="M4,0A4,4,0,1,1,-4,0A4,4,0,1,1,4,0" style="fill: #9e9ac8;"></path><path transform="translate(151.28952960758133,378.0013474488334)" d="M4,0A4,4,0,1,1,-4,0A4,4,0,1,1,4,0" style="fill: #bcbddc;"></path><path transform="translate(163.2999932857916,449.99229352547974)" d="M4,0A4,4,0,1,1,-4,0A4,4,0,1,1,4,0" style="fill: #dadaeb;"></path><path transform="translate(104.28847992073261,233.98583141876716)" d="M4,0A4,4,0,1,1,-4,0A4,4,0,1,1,4,0" style="fill: #636363;"></path><path transform="translate(690.288804330263,521.985681157098)" d="M4,0A4,4,0,1,1,-4,0A4,4,0,1,1,4,0" style="fill: #969696;"></path><path transform="translate(750.2900000000409,18.0188)" d="M4,0A4,4,0,1,1,-4,0A4,4,0,1,1,4,0" style="fill: #bdbdbd;"></path><path transform="translate(750.2900020047448,89.9990610428449)" d="M4,0A4,4,0,1,1,-4,0A4,4,0,1,1,4,0" style="fill: #d9d9d9;"></path><path transform="translate(750.2888408242065,161.99446745138272)" d="M4,0A4,4,0,1,1,-4,0A4,4,0,1,1,4,0" style="fill: #3182bd;"></path></g><g class="mark-text role-mark labels"><text text-anchor="start" transform="translate(782.29,1021)" style="font-family: sans-serif; font-size: 11px; font-weight: normal; fill: black;">all</text><text text-anchor="start" transform="translate(484.29,517)" style="font-family: sans-serif; font-size: 11px; font-weight: normal; fill: black;">bacteria_combine_genome</text><text text-anchor="start" transform="translate(512.29,733)" style="font-family: sans-serif; font-size: 11px; font-weight: normal; fill: black;">bacteria_combine_result</text><text text-anchor="start" transform="translate(505.29,877)" style="font-family: sans-serif; font-size: 11px; font-weight: normal; fill: black;">bacteria_count_combine</text><text text-anchor="start" transform="translate(505.29,805)" style="font-family: sans-serif; font-size: 11px; font-weight: normal; fill: black;">bacteria_count_taxa</text><text text-anchor="start" transform="translate(484.29,445)" style="font-family: sans-serif; font-size: 11px; font-weight: normal; fill: black;">bacteria_download_genomes</text><text text-anchor="start" transform="translate(475.29,589)" style="font-family: sans-serif; font-size: 11px; font-weight: normal; fill: black;">bacteria_index</text><text text-anchor="start" transform="translate(493.29,661)" style="font-family: sans-serif; font-size: 11px; font-weight: normal; fill: black;">bacteria_mapping</text><text text-anchor="start" transform="translate(296.29,733)" style="font-family: sans-serif; font-size: 11px; font-weight: normal; fill: black;">download_ncbi_taxdump</text><text text-anchor="start" transform="translate(277.29,157)" style="font-family: sans-serif; font-size: 11px; font-weight: normal; fill: black;">download_repeat_masker</text><text text-anchor="start" transform="translate(71.294,85)" style="font-family: sans-serif; font-size: 11px; font-weight: normal; fill: black;">download_silva</text><text text-anchor="start" transform="translate(714.29,661)" style="font-family: sans-serif; font-size: 11px; font-weight: normal; fill: black;">endogenous_count_barplot</text><text text-anchor="start" transform="translate(834.29,949)" style="font-family: sans-serif; font-size: 11px; font-weight: normal; fill: black;">fastqc</text><text text-anchor="start" transform="translate(109.29,157)" style="font-family: sans-serif; font-size: 11px; font-weight: normal; fill: black;">filter_silva</text><text text-anchor="start" transform="translate(677.29,373)" style="font-family: sans-serif; font-size: 11px; font-weight: normal; fill: black;">genome_count</text><text text-anchor="start" transform="translate(474.29,157)" style="font-family: sans-serif; font-size: 11px; font-weight: normal; fill: black;">genome_download</text><text text-anchor="start" transform="translate(475.29,229)" style="font-family: sans-serif; font-size: 11px; font-weight: normal; fill: black;">genome_index</text><text text-anchor="start" transform="translate(478.29,301)" style="font-family: sans-serif; font-size: 11px; font-weight: normal; fill: black;">genome_mapping</text><text text-anchor="start" transform="translate(677.29,301)" style="font-family: sans-serif; font-size: 11px; font-weight: normal; fill: black;">make_genome_annotation</text><text text-anchor="start" transform="translate(278.29,229)" style="font-family: sans-serif; font-size: 11px; font-weight: normal; fill: black;">make_re_fasta</text><text text-anchor="start" transform="translate(137.29,301)" style="font-family: sans-serif; font-size: 11px; font-weight: normal; fill: black;">make_silva</text><text text-anchor="start" transform="translate(710.29,589)" style="font-family: sans-serif; font-size: 11px; font-weight: normal; fill: black;">organize_endogenous_counts</text><text text-anchor="start" transform="translate(505.29,949)" style="font-family: sans-serif; font-size: 11px; font-weight: normal; fill: black;">organize_exogenous</text><text text-anchor="start" transform="translate(879.29,85)" style="font-family: sans-serif; font-size: 11px; font-weight: normal; fill: black;">preprocess</text><text text-anchor="start" transform="translate(949.29,445)" style="font-family: sans-serif; font-size: 11px; font-weight: normal; fill: black;">preprocess_stats</text><text text-anchor="start" transform="translate(279.29,301)" style="font-family: sans-serif; font-size: 11px; font-weight: normal; fill: black;">re_index</text><text text-anchor="start" transform="translate(285.29,373)" style="font-family: sans-serif; font-size: 11px; font-weight: normal; fill: black;">re_mapping</text><text text-anchor="start" transform="translate(619.29,157)" style="font-family: sans-serif; font-size: 11px; font-weight: normal; fill: black;">rrna_index</text><text text-anchor="start" transform="translate(594.29,85)" style="font-family: sans-serif; font-size: 11px; font-weight: normal; fill: black;">rrna_make_sequence</text><text text-anchor="start" transform="translate(619.29,229)" style="font-family: sans-serif; font-size: 11px; font-weight: normal; fill: black;">rrna_mapping</text><text text-anchor="start" transform="translate(168.29,517)" style="font-family: sans-serif; font-size: 11px; font-weight: normal; fill: black;">silva_combine</text><text text-anchor="start" transform="translate(300.29,877)" style="font-family: sans-serif; font-size: 11px; font-weight: normal; fill: black;">silva_count_combine</text><text text-anchor="start" transform="translate(296.29,805)" style="font-family: sans-serif; font-size: 11px; font-weight: normal; fill: black;">silva_count_taxa</text><text text-anchor="start" transform="translate(292.29,589)" style="font-family: sans-serif; font-size: 11px; font-weight: normal; fill: black;">silva_extract_unmapped</text><text text-anchor="start" transform="translate(156.29,373)" style="font-family: sans-serif; font-size: 11px; font-weight: normal; fill: black;">silva_index</text><text text-anchor="start" transform="translate(168.29,445)" style="font-family: sans-serif; font-size: 11px; font-weight: normal; fill: black;">silva_mapping</text><text text-anchor="start" transform="translate(109.29,229)" style="font-family: sans-serif; font-size: 11px; font-weight: normal; fill: black;">solve_silva_taxa</text><text text-anchor="start" transform="translate(695.29,517)" style="font-family: sans-serif; font-size: 11px; font-weight: normal; fill: black;">summarize_counts</text><text text-anchor="start" transform="translate(755.29,13)" style="font-family: sans-serif; font-size: 11px; font-weight: normal; fill: black;">univec_get_sequence</text><text text-anchor="start" transform="translate(755.29,85)" style="font-family: sans-serif; font-size: 11px; font-weight: normal; fill: black;">univec_index</text><text text-anchor="start" transform="translate(755.29,157)" style="font-family: sans-serif; font-size: 11px; font-weight: normal; fill: black;">univec_mapping</text></g></g></g></g></g></svg>