<svg class="marks" width="994.29" height="1046" viewBox="0 0 994.29 1046" version="1.1" xmlns="http://www.w3.org/2000/svg" xmlns:xlink="http://www.w3.org/1999/xlink"><g transform="translate(0,0)"><g class="mark-group role-frame root"><g transform="translate(0,0)"><path class="background" d="M0,0h994.29v1046h-994.29Z" style="fill: none;"></path><g><g class="mark-path role-mark" style="pointer-events: none;"><path transform="translate(0,0)" d="M471.2936246159468,594.0011216107898C471.2936246159468,558.006668972178 478.29077396121926,558.006668972178 478.29077396121926,522.0122163335662" style="fill: none; stroke: #ccc; stroke-width: 0.5;"></path><path transform="translate(0,0)" d="M502.26830598795993,809.992327398954C502.26830598795993,773.9956351758613 509.28692394534363,773.9956351758613 509.28692394534363,737.9989429527685" style="fill: none; stroke: #ccc; stroke-width: 0.5;"></path><path transform="translate(0,0)" d="M502.29280418248607,953.9941062059266C502.29280418248607,917.9970509858514 502.29000010762223,917.9970509858514 502.29000010762223,881.9999957657761" style="fill: none; stroke: #ccc; stroke-width: 0.5;"></path><path transform="translate(0,0)" d="M502.29000010762223,881.9999957657761C502.29000010762223,845.9961615823651 502.26830598795993,845.9961615823651 502.26830598795993,809.992327398954" style="fill: none; stroke: #ccc; stroke-width: 0.5;"></path><path transform="translate(0,0)" d="M478.29077396121926,522.0122163335662C478.29077396121926,486.016685287063 478.2899997308563,486.016685287063 478.2899997308563,450.0211542405598" style="fill: none; stroke: #ccc; stroke-width: 0.5;"></path><path transform="translate(0,0)" d="M492.2733512572506,665.9843000538532C492.2733512572506,629.9927108323216 471.2936246159468,629.9927108323216 471.2936246159468,594.0011216107898" style="fill: none; stroke: #ccc; stroke-width: 0.5;"></path><path transform="translate(0,0)" d="M509.28692394534363,737.9989429527685C509.28692394534363,701.9916215033109 492.2733512572506,701.9916215033109 492.2733512572506,665.9843000538532" style="fill: none; stroke: #ccc; stroke-width: 0.5;"></path><path transform="translate(0,0)" d="M478.29077396121926,522.0122163335662C478.29077396121926,593.9982581937097 492.2733512572506,593.9982581937097 492.2733512572506,665.9843000538532" style="fill: none; stroke: #ccc; stroke-width: 0.5;"></path><path transform="translate(0,0)" d="M293.2786283023225,809.9735019002733C293.2786283023225,773.996726959147 293.3233654634759,773.996726959147 293.3233654634759,738.0199520180208" style="fill: none; stroke: #ccc; stroke-width: 0.5;"></path><path transform="translate(0,0)" d="M502.26830598795993,809.992327398954C502.26830598795993,774.0061397084874 293.3233654634759,774.0061397084874 293.3233654634759,738.0199520180208" style="fill: none; stroke: #ccc; stroke-width: 0.5;"></path><path transform="translate(0,0)" d="M275.28990213614276,233.99765126742503C275.28990213614276,198.00822996834705 272.2907836945529,198.00822996834705 272.2907836945529,162.01880866926908" style="fill: none; stroke: #ccc; stroke-width: 0.5;"></path><path transform="translate(0,0)" d="M104.29088727382636,233.9862270895071C104.29088727382636,162.007637138708 66.30363863341766,162.007637138708 66.30363863341766,90.02904718790884" style="fill: none; stroke: #ccc; stroke-width: 0.5;"></path><path transform="translate(0,0)" d="M104.28605259542101,162.00097966035912C104.28605259542101,126.01501342413398 66.30363863341766,126.01501342413398 66.30363863341766,90.02904718790884" style="fill: none; stroke: #ccc; stroke-width: 0.5;"></path><path transform="translate(0,0)" d="M741.2833462198786,1025.9142839155104C741.2833462198786,845.9410653144619 796.2931937812109,845.9410653144619 796.2931937812109,665.9678467134135" style="fill: none; stroke: #ccc; stroke-width: 0.5;"></path><path transform="translate(0,0)" d="M104.29088727382636,233.9862270895071C104.29088727382636,197.99360337493312 104.28605259542101,197.99360337493312 104.28605259542101,162.00097966035912" style="fill: none; stroke: #ccc; stroke-width: 0.5;"></path><path transform="translate(0,0)" d="M691.2894675731962,450.00928115479456C691.2894675731962,414.00035626969986 672.271461006759,414.00035626969986 672.271461006759,377.9914313846052" style="fill: none; stroke: #ccc; stroke-width: 0.5;"></path><path transform="translate(0,0)" d="M470.2902613586823,234.00000698468963C470.2902613586823,198.00940397452814 469.2902611245051,198.00940397452814 469.2902611245051,162.01880096436665" style="fill: none; stroke: #ccc; stroke-width: 0.5;"></path><path transform="translate(0,0)" d="M473.30282021100777,306.00026484935034C473.30282021100777,270.00013591702 470.2902613586823,270.00013591702 470.2902613586823,234.00000698468963" style="fill: none; stroke: #ccc; stroke-width: 0.5;"></path><path transform="translate(0,0)" d="M672.271461006759,377.9914313846052C672.271461006759,341.99584811697775 473.30282021100777,341.99584811697775 473.30282021100777,306.00026484935034" style="fill: none; stroke: #ccc; stroke-width: 0.5;"></path><path transform="translate(0,0)" d="M287.2932315355894,378.01200619214484C287.2932315355894,342.0061355207476 473.30282021100777,342.0061355207476 473.30282021100777,306.00026484935034" style="fill: none; stroke: #ccc; stroke-width: 0.5;"></path><path transform="translate(0,0)" d="M672.271461006759,377.9914313846052C672.271461006759,342.0062901231977 672.2899909223057,342.0062901231977 672.2899909223057,306.0211488617902" style="fill: none; stroke: #ccc; stroke-width: 0.5;"></path><path transform="translate(0,0)" d="M278.29088862858146,306.002383958751C278.29088862858146,270.000017613088 275.28990213614276,270.000017613088 275.28990213614276,233.99765126742503" style="fill: none; stroke: #ccc; stroke-width: 0.5;"></path><path transform="translate(0,0)" d="M163.28986478173786,378.00140502990035C163.28986478173786,341.99954827852156 158.28346806942676,341.99954827852156 158.28346806942676,305.99769152714276" style="fill: none; stroke: #ccc; stroke-width: 0.5;"></path><path transform="translate(0,0)" d="M741.2833462198786,1025.9142839155104C741.2833462198786,809.9888999599552 705.2950469499067,809.9888999599552 705.2950469499067,594.0635160044" style="fill: none; stroke: #ccc; stroke-width: 0.5;"></path><path transform="translate(0,0)" d="M741.2833462198786,1025.9142839155104C741.2833462198786,989.9541950607186 502.29280418248607,989.9541950607186 502.29280418248607,953.9941062059266" style="fill: none; stroke: #ccc; stroke-width: 0.5;"></path><path transform="translate(0,0)" d="M863.2718209899392,953.8608594888412C863.2718209899392,522.0168002580015 874.2695247970706,522.0168002580015 874.2695247970706,90.17274102716169" style="fill: none; stroke: #ccc; stroke-width: 0.5;"></path><path transform="translate(0,0)" d="M796.2931937812109,665.9678467134135C796.2931937812109,378.07029387028757 874.2695247970706,378.07029387028757 874.2695247970706,90.17274102716169" style="fill: none; stroke: #ccc; stroke-width: 0.5;"></path><path transform="translate(0,0)" d="M750.2888384551987,161.99447136212305C750.2888384551987,126.08360619464237 874.2695247970706,126.08360619464237 874.2695247970706,90.17274102716169" style="fill: none; stroke: #ccc; stroke-width: 0.5;"></path><path transform="translate(0,0)" d="M741.2833462198786,1025.9142839155104C741.2833462198786,989.8875717021758 863.2718209899392,989.8875717021758 863.2718209899392,953.8608594888412" style="fill: none; stroke: #ccc; stroke-width: 0.5;"></path><path transform="translate(0,0)" d="M287.2932315355894,378.01200619214484C287.2932315355894,342.00719507544795 278.29088862858146,342.00719507544795 278.29088862858146,306.002383958751" style="fill: none; stroke: #ccc; stroke-width: 0.5;"></path><path transform="translate(0,0)" d="M166.30113998946297,449.9922955014869C166.30113998946297,414.0021508468159 287.2932315355894,414.0021508468159 287.2932315355894,378.01200619214484" style="fill: none; stroke: #ccc; stroke-width: 0.5;"></path><path transform="translate(0,0)" d="M289.30016748871725,593.9795171291017C289.30016748871725,485.9957616606233 287.2932315355894,485.9957616606233 287.2932315355894,378.01200619214484" style="fill: none; stroke: #ccc; stroke-width: 0.5;"></path><path transform="translate(0,0)" d="M614.2878251525685,233.9952586085243C614.2878251525685,197.99701962817045 614.2866397718773,197.99701962817045 614.2866397718773,161.99878064781663" style="fill: none; stroke: #ccc; stroke-width: 0.5;"></path><path transform="translate(0,0)" d="M614.2866397718773,161.99878064781663C614.2866397718773,126.00906967609168 589.2967204562602,126.00906967609168 589.2967204562602,90.01935870436675" style="fill: none; stroke: #ccc; stroke-width: 0.5;"></path><path transform="translate(0,0)" d="M473.30282021100777,306.00026484935034C473.30282021100777,269.99776172893735 614.2878251525685,269.99776172893735 614.2878251525685,233.9952586085243" style="fill: none; stroke: #ccc; stroke-width: 0.5;"></path><path transform="translate(0,0)" d="M293.2786283023225,809.9735019002733C293.2786283023225,666.0006179631872 166.31183005333585,666.0006179631872 166.31183005333585,522.0277340261011" style="fill: none; stroke: #ccc; stroke-width: 0.5;"></path><path transform="translate(0,0)" d="M289.30016748871725,593.9795171291017C289.30016748871725,558.0036255776015 166.31183005333585,558.0036255776015 166.31183005333585,522.0277340261011" style="fill: none; stroke: #ccc; stroke-width: 0.5;"></path><path transform="translate(0,0)" d="M502.29280418248607,953.9941062059266C502.29280418248607,917.9985477481098 297.3221822056867,917.9985477481098 297.3221822056867,882.0029892902928" style="fill: none; stroke: #ccc; stroke-width: 0.5;"></path><path transform="translate(0,0)" d="M297.3221822056867,882.0029892902928C297.3221822056867,845.988245595283 293.2786283023225,845.988245595283 293.2786283023225,809.9735019002733" style="fill: none; stroke: #ccc; stroke-width: 0.5;"></path><path transform="translate(0,0)" d="M492.2733512572506,665.9843000538532C492.2733512572506,629.9819085914775 289.30016748871725,629.9819085914775 289.30016748871725,593.9795171291017" style="fill: none; stroke: #ccc; stroke-width: 0.5;"></path><path transform="translate(0,0)" d="M166.30113998946297,449.9922955014869C166.30113998946297,413.99685026569364 163.28986478173786,413.99685026569364 163.28986478173786,378.00140502990035" style="fill: none; stroke: #ccc; stroke-width: 0.5;"></path><path transform="translate(0,0)" d="M166.31183005333585,522.0277340261011C166.31183005333585,486.01001476379406 166.30113998946297,486.01001476379406 166.30113998946297,449.9922955014869" style="fill: none; stroke: #ccc; stroke-width: 0.5;"></path><path transform="translate(0,0)" d="M158.28346806942676,305.99769152714276C158.28346806942676,269.9919593083249 104.29088727382636,269.9919593083249 104.29088727382636,233.9862270895071" style="fill: none; stroke: #ccc; stroke-width: 0.5;"></path><path transform="translate(0,0)" d="M705.2950469499067,594.0635160044C705.2950469499067,522.0363985795973 691.2894675731962,522.0363985795973 691.2894675731962,450.00928115479456" style="fill: none; stroke: #ccc; stroke-width: 0.5;"></path><path transform="translate(0,0)" d="M750.2900020042408,89.99906104401848C750.2900020042408,54.00893052200924 750.2900000001208,54.00893052200924 750.2900000001208,18.0188" style="fill: none; stroke: #ccc; stroke-width: 0.5;"></path><path transform="translate(0,0)" d="M750.2888384551987,161.99447136212305C750.2888384551987,125.99676620307076 750.2900020042408,125.99676620307076 750.2900020042408,89.99906104401848" style="fill: none; stroke: #ccc; stroke-width: 0.5;"></path><path transform="translate(0,0)" d="M614.2878251525685,233.9952586085243C614.2878251525685,197.99486498532366 750.2888384551987,197.99486498532366 750.2888384551987,161.99447136212305" style="fill: none; stroke: #ccc; stroke-width: 0.5;"></path></g><g class="mark-symbol role-mark nodes"><path transform="translate(741.2833462198786,1025.9142839155104)" d="M4,0A4,4,0,1,1,-4,0A4,4,0,1,1,4,0" style="fill: #3182bd;"></path><path transform="translate(478.29077396121926,522.0122163335662)" d="M4,0A4,4,0,1,1,-4,0A4,4,0,1,1,4,0" style="fill: #6baed6;"></path><path transform="translate(509.28692394534363,737.9989429527685)" d="M4,0A4,4,0,1,1,-4,0A4,4,0,1,1,4,0" style="fill: #9ecae1;"></path><path transform="translate(502.29000010762223,881.9999957657761)" d="M4,0A4,4,0,1,1,-4,0A4,4,0,1,1,4,0" style="fill: #c6dbef;"></path><path transform="translate(502.26830598795993,809.992327398954)" d="M4,0A4,4,0,1,1,-4,0A4,4,0,1,1,4,0" style="fill: #e6550d;"></path><path transform="translate(478.2899997308563,450.0211542405598)" d="M4,0A4,4,0,1,1,-4,0A4,4,0,1,1,4,0" style="fill: #fd8d3c;"></path><path transform="translate(471.2936246159468,594.0011216107898)" d="M4,0A4,4,0,1,1,-4,0A4,4,0,1,1,4,0" style="fill: #fdae6b;"></path><path transform="translate(492.2733512572506,665.9843000538532)" d="M4,0A4,4,0,1,1,-4,0A4,4,0,1,1,4,0" style="fill: #fdd0a2;"></path><path transform="translate(293.3233654634759,738.0199520180208)" d="M4,0A4,4,0,1,1,-4,0A4,4,0,1,1,4,0" style="fill: #31a354;"></path><path transform="translate(272.2907836945529,162.01880866926908)" d="M4,0A4,4,0,1,1,-4,0A4,4,0,1,1,4,0" style="fill: #74c476;"></path><path transform="translate(66.30363863341766,90.02904718790884)" d="M4,0A4,4,0,1,1,-4,0A4,4,0,1,1,4,0" style="fill: #a1d99b;"></path><path transform="translate(796.2931937812109,665.9678467134135)" d="M4,0A4,4,0,1,1,-4,0A4,4,0,1,1,4,0" style="fill: #c7e9c0;"></path><path transform="translate(104.28605259542101,162.00097966035912)" d="M4,0A4,4,0,1,1,-4,0A4,4,0,1,1,4,0" style="fill: #756bb1;"></path><path transform="translate(672.271461006759,377.9914313846052)" d="M4,0A4,4,0,1,1,-4,0A4,4,0,1,1,4,0" style="fill: #9e9ac8;"></path><path transform="translate(469.2902611245051,162.01880096436665)" d="M4,0A4,4,0,1,1,-4,0A4,4,0,1,1,4,0" style="fill: #bcbddc;"></path><path transform="translate(470.2902613586823,234.00000698468963)" d="M4,0A4,4,0,1,1,-4,0A4,4,0,1,1,4,0" style="fill: #dadaeb;"></path><path transform="translate(473.30282021100777,306.00026484935034)" d="M4,0A4,4,0,1,1,-4,0A4,4,0,1,1,4,0" style="fill: #636363;"></path><path transform="translate(672.2899909223057,306.0211488617902)" d="M4,0A4,4,0,1,1,-4,0A4,4,0,1,1,4,0" style="fill: #969696;"></path><path transform="translate(275.28990213614276,233.99765126742503)" d="M4,0A4,4,0,1,1,-4,0A4,4,0,1,1,4,0" style="fill: #bdbdbd;"></path><path transform="translate(158.28346806942676,305.99769152714276)" d="M4,0A4,4,0,1,1,-4,0A4,4,0,1,1,4,0" style="fill: #d9d9d9;"></path><path transform="translate(705.2950469499067,594.0635160044)" d="M4,0A4,4,0,1,1,-4,0A4,4,0,1,1,4,0" style="fill: #3182bd;"></path><path transform="translate(502.29280418248607,953.9941062059266)" d="M4,0A4,4,0,1,1,-4,0A4,4,0,1,1,4,0" style="fill: #6baed6;"></path><path transform="translate(874.2695247970706,90.17274102716169)" d="M4,0A4,4,0,1,1,-4,0A4,4,0,1,1,4,0" style="fill: #9ecae1;"></path><path transform="translate(863.2718209899392,953.8608594888412)" d="M4,0A4,4,0,1,1,-4,0A4,4,0,1,1,4,0" style="fill: #c6dbef;"></path><path transform="translate(278.29088862858146,306.002383958751)" d="M4,0A4,4,0,1,1,-4,0A4,4,0,1,1,4,0" style="fill: #e6550d;"></path><path transform="translate(287.2932315355894,378.01200619214484)" d="M4,0A4,4,0,1,1,-4,0A4,4,0,1,1,4,0" style="fill: #fd8d3c;"></path><path transform="translate(614.2866397718773,161.99878064781663)" d="M4,0A4,4,0,1,1,-4,0A4,4,0,1,1,4,0" style="fill: #fdae6b;"></path><path transform="translate(589.2967204562602,90.01935870436675)" d="M4,0A4,4,0,1,1,-4,0A4,4,0,1,1,4,0" style="fill: #fdd0a2;"></path><path transform="translate(614.2878251525685,233.9952586085243)" d="M4,0A4,4,0,1,1,-4,0A4,4,0,1,1,4,0" style="fill: #31a354;"></path><path transform="translate(166.31183005333585,522.0277340261011)" d="M4,0A4,4,0,1,1,-4,0A4,4,0,1,1,4,0" style="fill: #74c476;"></path><path transform="translate(297.3221822056867,882.0029892902928)" d="M4,0A4,4,0,1,1,-4,0A4,4,0,1,1,4,0" style="fill: #a1d99b;"></path><path transform="translate(293.2786283023225,809.9735019002733)" d="M4,0A4,4,0,1,1,-4,0A4,4,0,1,1,4,0" style="fill: #c7e9c0;"></path><path transform="translate(289.30016748871725,593.9795171291017)" d="M4,0A4,4,0,1,1,-4,0A4,4,0,1,1,4,0" style="fill: #756bb1;"></path><path transform="translate(163.28986478173786,378.00140502990035)" d="M4,0A4,4,0,1,1,-4,0A4,4,0,1,1,4,0" style="fill: #9e9ac8;"></path><path transform="translate(166.30113998946297,449.9922955014869)" d="M4,0A4,4,0,1,1,-4,0A4,4,0,1,1,4,0" style="fill: #bcbddc;"></path><path transform="translate(104.29088727382636,233.9862270895071)" d="M4,0A4,4,0,1,1,-4,0A4,4,0,1,1,4,0" style="fill: #dadaeb;"></path><path transform="translate(691.2894675731962,450.00928115479456)" d="M4,0A4,4,0,1,1,-4,0A4,4,0,1,1,4,0" style="fill: #636363;"></path><path transform="translate(750.2900000001208,18.0188)" d="M4,0A4,4,0,1,1,-4,0A4,4,0,1,1,4,0" style="fill: #969696;"></path><path transform="translate(750.2900020042408,89.99906104401848)" d="M4,0A4,4,0,1,1,-4,0A4,4,0,1,1,4,0" style="fill: #bdbdbd;"></path><path transform="translate(750.2888384551987,161.99447136212305)" d="M4,0A4,4,0,1,1,-4,0A4,4,0,1,1,4,0" style="fill: #d9d9d9;"></path></g><g class="mark-text role-mark labels"><text text-anchor="start" transform="translate(746.29,1021)" style="font-family: sans-serif; font-size: 11px; font-weight: normal; fill: black;">all</text><text text-anchor="start" transform="translate(483.29,517)" style="font-family: sans-serif; font-size: 11px; font-weight: normal; fill: black;">bacteria_combine_genome</text><text text-anchor="start" transform="translate(514.29,733)" style="font-family: sans-serif; font-size: 11px; font-weight: normal; fill: black;">bacteria_combine_result</text><text text-anchor="start" transform="translate(507.29,877)" style="font-family: sans-serif; font-size: 11px; font-weight: normal; fill: black;">bacteria_count_combine</text><text text-anchor="start" transform="translate(507.29,805)" style="font-family: sans-serif; font-size: 11px; font-weight: normal; fill: black;">bacteria_count_taxa</text><text text-anchor="start" transform="translate(483.29,445)" style="font-family: sans-serif; font-size: 11px; font-weight: normal; fill: black;">bacteria_download_genomes</text><text text-anchor="start" transform="translate(476.29,589)" style="font-family: sans-serif; font-size: 11px; font-weight: normal; fill: black;">bacteria_index</text><text text-anchor="start" transform="translate(497.29,661)" style="font-family: sans-serif; font-size: 11px; font-weight: normal; fill: black;">bacteria_mapping</text><text text-anchor="start" transform="translate(298.29,733)" style="font-family: sans-serif; font-size: 11px; font-weight: normal; fill: black;">download_ncbi_taxdump</text><text text-anchor="start" transform="translate(277.29,157)" style="font-family: sans-serif; font-size: 11px; font-weight: normal; fill: black;">download_repeat_masker</text><text text-anchor="start" transform="translate(71.294,85)" style="font-family: sans-serif; font-size: 11px; font-weight: normal; fill: black;">download_silva</text><text text-anchor="start" transform="translate(801.29,661)" style="font-family: sans-serif; font-size: 11px; font-weight: normal; fill: black;">fastqc</text><text text-anchor="start" transform="translate(109.29,157)" style="font-family: sans-serif; font-size: 11px; font-weight: normal; fill: black;">filter_silva</text><text text-anchor="start" transform="translate(677.29,373)" style="font-family: sans-serif; font-size: 11px; font-weight: normal; fill: black;">genome_count</text><text text-anchor="start" transform="translate(474.29,157)" style="font-family: sans-serif; font-size: 11px; font-weight: normal; fill: black;">genome_download</text><text text-anchor="start" transform="translate(475.29,229)" style="font-family: sans-serif; font-size: 11px; font-weight: normal; fill: black;">genome_index</text><text text-anchor="start" transform="translate(478.29,301)" style="font-family: sans-serif; font-size: 11px; font-weight: normal; fill: black;">genome_mapping</text><text text-anchor="start" transform="translate(677.29,301)" style="font-family: sans-serif; font-size: 11px; font-weight: normal; fill: black;">make_genome_annotation</text><text text-anchor="start" transform="translate(280.29,229)" style="font-family: sans-serif; font-size: 11px; font-weight: normal; fill: black;">make_re_fasta</text><text text-anchor="start" transform="translate(163.29,301)" style="font-family: sans-serif; font-size: 11px; font-weight: normal; fill: black;">make_silva</text><text text-anchor="start" transform="translate(710.29,589)" style="font-family: sans-serif; font-size: 11px; font-weight: normal; fill: black;">organize_endogenous_counts</text><text text-anchor="start" transform="translate(507.29,949)" style="font-family: sans-serif; font-size: 11px; font-weight: normal; fill: black;">organize_exogenous</text><text text-anchor="start" transform="translate(879.29,85)" style="font-family: sans-serif; font-size: 11px; font-weight: normal; fill: black;">preprocess</text><text text-anchor="start" transform="translate(868.29,949)" style="font-family: sans-serif; font-size: 11px; font-weight: normal; fill: black;">preprocess_stats</text><text text-anchor="start" transform="translate(283.29,301)" style="font-family: sans-serif; font-size: 11px; font-weight: normal; fill: black;">re_index</text><text text-anchor="start" transform="translate(292.29,373)" style="font-family: sans-serif; font-size: 11px; font-weight: normal; fill: black;">re_mapping</text><text text-anchor="start" transform="translate(619.29,157)" style="font-family: sans-serif; font-size: 11px; font-weight: normal; fill: black;">rrna_index</text><text text-anchor="start" transform="translate(594.29,85)" style="font-family: sans-serif; font-size: 11px; font-weight: normal; fill: black;">rrna_make_sequence</text><text text-anchor="start" transform="translate(619.29,229)" style="font-family: sans-serif; font-size: 11px; font-weight: normal; fill: black;">rrna_mapping</text><text text-anchor="start" transform="translate(171.29,517)" style="font-family: sans-serif; font-size: 11px; font-weight: normal; fill: black;">silva_combine</text><text text-anchor="start" transform="translate(302.29,877)" style="font-family: sans-serif; font-size: 11px; font-weight: normal; fill: black;">silva_count_combine</text><text text-anchor="start" transform="translate(298.29,805)" style="font-family: sans-serif; font-size: 11px; font-weight: normal; fill: black;">silva_count_taxa</text><text text-anchor="start" transform="translate(294.29,589)" style="font-family: sans-serif; font-size: 11px; font-weight: normal; fill: black;">silva_extract_unmapped</text><text text-anchor="start" transform="translate(168.29,373)" style="font-family: sans-serif; font-size: 11px; font-weight: normal; fill: black;">silva_index</text><text text-anchor="start" transform="translate(171.29,445)" style="font-family: sans-serif; font-size: 11px; font-weight: normal; fill: black;">silva_mapping</text><text text-anchor="start" transform="translate(109.29,229)" style="font-family: sans-serif; font-size: 11px; font-weight: normal; fill: black;">solve_silva_taxa</text><text text-anchor="start" transform="translate(696.29,445)" style="font-family: sans-serif; font-size: 11px; font-weight: normal; fill: black;">summarize_counts</text><text text-anchor="start" transform="translate(755.29,13)" style="font-family: sans-serif; font-size: 11px; font-weight: normal; fill: black;">univec_get_sequence</text><text text-anchor="start" transform="translate(755.29,85)" style="font-family: sans-serif; font-size: 11px; font-weight: normal; fill: black;">univec_index</text><text text-anchor="start" transform="translate(755.29,157)" style="font-family: sans-serif; font-size: 11px; font-weight: normal; fill: black;">univec_mapping</text></g></g></g></g></g></svg>